<svg xmlns="http://www.w3.org/2000/svg" xmlns:xlink="http://www.w3.org/1999/xlink" width="500" zoomAndPan="magnify" viewBox="0 0 375 374.999991" height="500" preserveAspectRatio="xMidYMid meet" version="1.0"><defs><clipPath id="id1"><path d="M 21 12 L 366.140625 12 L 366.140625 375 L 21 375 Z M 21 12 " clip-rule="nonzero"/></clipPath><clipPath id="id2"><path d="M 9.140625 0 L 354 0 L 354 363 L 9.140625 363 Z M 9.140625 0 " clip-rule="nonzero"/></clipPath></defs><g clip-path="url(#id1)"><path fill="#e6e7e8" d="M 363.082031 109.757812 L 216.625 109.757812 C 214.941406 109.757812 213.574219 111.121094 213.574219 112.804688 L 213.574219 141.769531 L 172.152344 141.769531 L 101.292969 108.710938 L 101.292969 82.316406 L 139.433594 82.316406 C 158.8125 82.316406 174.519531 66.621094 174.519531 47.257812 C 174.519531 27.890625 158.8125 12.195312 139.433594 12.195312 L 57.050781 12.195312 C 37.671875 12.195312 21.960938 27.890625 21.960938 47.257812 C 21.960938 66.621094 37.671875 82.316406 57.050781 82.316406 L 95.191406 82.316406 L 95.191406 108.710938 L 23.726562 142.054688 C 21.382812 143.148438 21.382812 146.484375 23.726562 147.578125 L 95.191406 180.925781 L 95.191406 207.316406 L 25.011719 207.316406 C 23.328125 207.316406 21.960938 208.683594 21.960938 210.367188 L 21.960938 274.390625 C 21.960938 276.074219 23.328125 277.4375 25.011719 277.4375 L 95.191406 277.4375 L 95.191406 304.878906 L 57.050781 304.878906 C 37.671875 304.878906 21.960938 320.574219 21.960938 339.9375 C 21.960938 359.304688 37.671875 375 57.050781 375 L 139.433594 375 C 158.8125 375 174.519531 359.304688 174.519531 339.9375 C 174.519531 320.574219 158.8125 304.878906 139.433594 304.878906 L 101.292969 304.878906 L 101.292969 277.4375 L 171.46875 277.4375 C 173.15625 277.4375 174.519531 276.074219 174.519531 274.390625 L 174.519531 245.425781 L 289.855469 245.425781 C 291.539062 245.425781 292.90625 244.0625 292.90625 242.378906 L 292.90625 179.878906 L 363.082031 179.878906 C 364.765625 179.878906 366.132812 178.511719 366.132812 176.828125 L 366.132812 112.804688 C 366.132812 111.121094 364.765625 109.757812 363.082031 109.757812 Z M 286.804688 239.328125 L 174.519531 239.328125 L 174.519531 210.367188 C 174.519531 208.683594 173.15625 207.316406 171.46875 207.316406 L 101.292969 207.316406 L 101.292969 180.925781 L 172.15625 147.867188 L 213.574219 147.867188 L 213.574219 176.828125 C 213.574219 178.511719 214.941406 179.878906 216.625 179.878906 L 286.804688 179.878906 Z M 286.804688 239.328125 " fill-opacity="1" fill-rule="nonzero"/></g><path fill="#fa759e" d="M 127.226562 3.046875 L 44.847656 3.046875 C 27.152344 3.046875 12.808594 17.378906 12.808594 35.0625 C 12.808594 52.742188 27.152344 67.074219 44.847656 67.074219 L 127.226562 67.074219 C 144.917969 67.074219 159.265625 52.742188 159.265625 35.0625 C 159.265625 17.378906 144.917969 3.046875 127.226562 3.046875 Z M 127.226562 3.046875 " fill-opacity="1" fill-rule="nonzero"/><path fill="#ffffff" d="M 44.847656 12.195312 L 127.226562 12.195312 C 143.144531 12.203125 156.636719 23.894531 158.898438 39.632812 C 159.128906 38.121094 159.253906 36.59375 159.265625 35.0625 C 159.265625 17.378906 144.917969 3.046875 127.226562 3.046875 L 44.847656 3.046875 C 35.53125 2.976562 26.648438 6.996094 20.554688 14.03125 C 14.460938 21.074219 11.765625 30.433594 13.175781 39.632812 C 15.4375 23.894531 28.929688 12.203125 44.847656 12.195312 Z M 44.847656 12.195312 " fill-opacity="1" fill-rule="nonzero"/><path fill="#fa759e" d="M 127.226562 295.730469 L 44.847656 295.730469 C 27.152344 295.730469 12.808594 310.0625 12.808594 327.742188 C 12.808594 345.425781 27.152344 359.757812 44.847656 359.757812 L 127.226562 359.757812 C 144.917969 359.757812 159.265625 345.425781 159.265625 327.742188 C 159.265625 310.0625 144.917969 295.730469 127.226562 295.730469 Z M 127.226562 295.730469 " fill-opacity="1" fill-rule="nonzero"/><path fill="#6dc9f7" d="M 12.8125 262.195312 L 159.269531 262.195312 L 159.269531 198.171875 L 12.8125 198.171875 Z M 12.8125 262.195312 " fill-opacity="1" fill-rule="nonzero"/><path fill="#6dc9f7" d="M 204.414062 164.632812 L 350.871094 164.632812 L 350.871094 100.609375 L 204.414062 100.609375 Z M 204.414062 164.632812 " fill-opacity="1" fill-rule="nonzero"/><path fill="#0089ef" d="M 86.039062 98.453125 L 12.8125 132.621094 L 86.039062 166.785156 L 159.269531 132.621094 Z M 86.039062 98.453125 " fill-opacity="1" fill-rule="nonzero"/><g clip-path="url(#id2)"><path fill="#3a2c60" d="M 350.878906 97.5625 L 280.699219 97.5625 C 276.632812 97.5625 276.632812 103.660156 280.699219 103.660156 L 347.828125 103.660156 L 347.828125 161.585938 L 207.472656 161.585938 L 207.472656 103.660156 L 230.773438 103.660156 C 234.84375 103.660156 234.84375 97.5625 230.773438 97.5625 L 204.421875 97.5625 C 202.738281 97.5625 201.371094 98.925781 201.371094 100.609375 L 201.371094 129.574219 L 159.953125 129.574219 L 89.089844 96.511719 L 89.089844 70.121094 L 127.226562 70.121094 C 146.609375 70.121094 162.316406 54.425781 162.316406 35.0625 C 162.316406 15.695312 146.609375 0 127.226562 0 L 44.847656 0 C 25.464844 0 9.757812 15.695312 9.757812 35.0625 C 9.757812 54.425781 25.464844 70.121094 44.847656 70.121094 L 82.984375 70.121094 L 82.984375 96.515625 L 11.519531 129.859375 C 9.175781 130.953125 9.175781 134.289062 11.519531 135.386719 L 82.984375 168.726562 L 82.984375 195.121094 L 12.808594 195.121094 C 11.125 195.121094 9.757812 196.488281 9.757812 198.171875 L 9.757812 262.195312 C 9.757812 263.878906 11.125 265.242188 12.808594 265.242188 L 82.984375 265.242188 L 82.984375 292.683594 L 44.847656 292.683594 C 25.464844 292.683594 9.757812 308.378906 9.757812 327.742188 C 9.757812 347.109375 25.464844 362.804688 44.847656 362.804688 L 127.226562 362.804688 C 146.609375 362.804688 162.316406 347.109375 162.316406 327.742188 C 162.316406 308.378906 146.609375 292.683594 127.226562 292.683594 L 89.089844 292.683594 L 89.089844 265.242188 L 159.265625 265.242188 C 160.949219 265.242188 162.316406 263.878906 162.316406 262.195312 L 162.316406 233.230469 L 277.648438 233.230469 C 279.335938 233.230469 280.699219 231.867188 280.699219 230.183594 L 280.699219 167.683594 L 350.878906 167.683594 C 352.5625 167.683594 353.929688 166.316406 353.929688 164.632812 L 353.929688 100.609375 C 353.929688 98.925781 352.5625 97.5625 350.878906 97.5625 Z M 15.859375 35.0625 C 15.875 19.070312 28.84375 6.117188 44.847656 6.097656 L 127.226562 6.097656 C 143.234375 6.097656 156.214844 19.066406 156.214844 35.0625 C 156.214844 51.054688 143.234375 64.023438 127.226562 64.023438 L 44.847656 64.023438 C 28.84375 64.003906 15.875 51.050781 15.859375 35.0625 Z M 156.214844 327.742188 C 156.195312 343.734375 143.226562 356.6875 127.226562 356.707031 L 44.847656 356.707031 C 28.835938 356.707031 15.859375 343.738281 15.859375 327.742188 C 15.859375 311.75 28.835938 298.78125 44.847656 298.78125 L 127.226562 298.78125 C 143.226562 298.800781 156.195312 311.753906 156.214844 327.742188 Z M 86.035156 101.828125 L 152.0625 132.621094 L 86.035156 163.414062 L 20.027344 132.621094 Z M 156.214844 259.144531 L 15.859375 259.144531 L 15.859375 201.21875 L 156.214844 201.21875 Z M 274.597656 227.132812 L 162.316406 227.132812 L 162.316406 198.171875 C 162.316406 196.488281 160.949219 195.121094 159.265625 195.121094 L 89.089844 195.121094 L 89.089844 168.726562 L 159.949219 135.671875 L 201.371094 135.671875 L 201.371094 164.632812 C 201.371094 166.316406 202.738281 167.683594 204.421875 167.683594 L 274.597656 167.683594 Z M 274.597656 227.132812 " fill-opacity="1" fill-rule="nonzero"/></g><path fill="#3a2c60" d="M 243.0625 103.660156 L 267.851562 103.660156 C 271.921875 103.660156 271.921875 97.5625 267.851562 97.5625 L 243.0625 97.5625 C 238.992188 97.5625 238.992188 103.660156 243.0625 103.660156 Z M 243.0625 103.660156 " fill-opacity="1" fill-rule="nonzero"/></svg>