<svg xmlns="http://www.w3.org/2000/svg" xmlns:xlink="http://www.w3.org/1999/xlink" width="500" zoomAndPan="magnify" viewBox="0 0 375 374.999991" height="500" preserveAspectRatio="xMidYMid meet" version="1.0"><defs><clipPath id="id1"><path d="M 0 32.578125 L 375 32.578125 L 375 342 L 0 342 Z M 0 32.578125 " clip-rule="nonzero"/></clipPath></defs><g clip-path="url(#id1)"><path fill="#100f0d" d="M 244.679688 234.324219 L 197.035156 288.367188 C 194.066406 287.273438 190.898438 286.585938 187.546875 286.585938 C 184.191406 286.585938 181.015625 287.277344 178.035156 288.371094 L 130.21875 234.226562 C 133.9375 228.472656 136.152344 221.652344 136.152344 214.289062 C 136.152344 205.710938 133.101562 197.921875 128.183594 191.660156 L 161.742188 145.019531 C 169.578125 148.851562 178.253906 151.195312 187.542969 151.195312 C 196.835938 151.195312 205.515625 148.851562 213.34375 145.019531 L 246.792969 191.503906 C 241.800781 197.792969 238.695312 205.640625 238.695312 214.289062 C 238.695312 221.691406 240.925781 228.550781 244.679688 234.324219 Z M 187.542969 52.910156 C 209.148438 52.910156 226.71875 70.472656 226.71875 92.0625 C 226.71875 113.660156 209.148438 131.222656 187.542969 131.222656 C 165.953125 131.222656 148.382812 113.660156 148.382812 92.0625 C 148.382812 70.472656 165.953125 52.910156 187.542969 52.910156 Z M 347.402344 286.585938 C 345.007812 286.585938 342.722656 286.984375 340.507812 287.558594 L 304.253906 237.179688 C 309.292969 230.875 312.433594 222.988281 312.433594 214.289062 C 312.433594 193.9375 295.925781 177.433594 275.5625 177.433594 C 271.117188 177.433594 266.910156 178.347656 262.964844 179.789062 L 229.652344 133.492188 C 240.167969 122.8125 246.695312 108.199219 246.695312 92.0625 C 246.695312 59.460938 220.164062 32.9375 187.542969 32.9375 C 154.9375 32.9375 128.40625 59.460938 128.40625 92.0625 C 128.40625 108.195312 134.933594 122.804688 145.4375 133.484375 L 112.078125 179.847656 C 108.078125 178.363281 103.804688 177.433594 99.285156 177.433594 C 78.921875 177.433594 62.414062 193.9375 62.414062 214.289062 C 62.414062 223.058594 65.605469 231.007812 70.722656 237.332031 L 34.585938 287.558594 C 32.371094 286.984375 30.085938 286.585938 27.695312 286.585938 C 12.425781 286.585938 0.0429688 298.964844 0.0429688 314.230469 C 0.0429688 329.5 12.425781 341.871094 27.695312 341.871094 C 42.96875 341.871094 55.34375 329.5 55.34375 314.230469 C 55.34375 308.664062 53.664062 303.5 50.832031 299.160156 L 87 248.894531 C 90.859375 250.265625 94.957031 251.148438 99.285156 251.148438 C 105.011719 251.148438 110.363281 249.730469 115.195312 247.402344 L 163.078125 301.617188 C 161.113281 305.417969 159.894531 309.664062 159.894531 314.230469 C 159.894531 329.5 172.277344 341.871094 187.546875 341.871094 C 202.820312 341.871094 215.199219 329.5 215.199219 314.230469 C 215.199219 309.648438 213.976562 305.390625 212 301.585938 L 259.734375 247.449219 C 264.546875 249.753906 269.875 251.148438 275.5625 251.148438 C 279.96875 251.148438 284.128906 250.25 288.042969 248.835938 L 324.261719 299.167969 C 321.425781 303.507812 319.75 308.664062 319.75 314.230469 C 319.75 329.5 332.128906 341.871094 347.402344 341.871094 C 362.671875 341.871094 375.050781 329.5 375.050781 314.230469 C 375.050781 298.964844 362.671875 286.585938 347.402344 286.585938 " fill-opacity="1" fill-rule="nonzero"/></g></svg>