<svg xmlns="http://www.w3.org/2000/svg" xmlns:xlink="http://www.w3.org/1999/xlink" width="500" zoomAndPan="magnify" viewBox="0 0 375 374.999991" height="500" preserveAspectRatio="xMidYMid meet" version="1.0"><path fill="#ffffff" d="M 211.027344 81.730469 C 201.847656 59.429688 203.144531 34.351562 216.375 14.15625 L 226.277344 0 C 207.976562 34.292969 225.398438 76.398438 253.445312 98.472656 C 258.363281 102.324219 263.667969 105.691406 269.234375 108.464844 C 272.164062 109.921875 275.179688 111.214844 278.238281 112.34375 C 280.625 113.222656 283.347656 114.148438 285.824219 114.773438 C 317.164062 122.664062 342.710938 117.214844 357.910156 94.515625 C 357.445312 95.210938 356.847656 96.316406 356.085938 97.722656 C 349.3125 110.269531 329.480469 146.988281 271.960938 135.464844 C 270.875 135.253906 269.824219 134.898438 268.773438 134.542969 C 268.460938 134.4375 268.148438 134.332031 267.835938 134.230469 C 267.613281 134.160156 267.390625 134.085938 267.167969 134.011719 C 266.96875 133.945312 266.769531 133.875 266.570312 133.8125 C 266.457031 133.773438 266.34375 133.734375 266.234375 133.695312 C 265.378906 133.398438 264.535156 133.101562 263.691406 132.777344 C 240.539062 123.972656 220.707031 105.402344 211.027344 81.730469 Z M 211.027344 81.730469 " fill-opacity="1" fill-rule="nonzero"/><path fill="#ffffff" d="M 135.363281 43.277344 C 112.925781 76.769531 114.144531 121.605469 131.648438 157.03125 C 134.582031 162.96875 137.882812 168.726562 141.574219 174.214844 C 141.96875 174.804688 142.371094 175.410156 142.78125 176.023438 C 145.828125 180.589844 149.191406 185.636719 153.125 189.175781 C 154.742188 191.023438 156.433594 192.824219 158.160156 194.597656 C 158.484375 194.941406 158.816406 195.277344 159.148438 195.613281 L 159.488281 195.953125 C 161.164062 197.640625 162.867188 199.300781 164.632812 200.914062 C 164.667969 200.941406 164.703125 200.972656 164.734375 201.007812 C 164.769531 201.039062 164.804688 201.074219 164.839844 201.101562 L 164.859375 201.121094 C 164.871094 201.128906 164.882812 201.136719 164.890625 201.148438 C 166.839844 202.921875 168.851562 204.628906 170.898438 206.304688 C 171.160156 206.511719 171.417969 206.722656 171.679688 206.9375 C 171.871094 207.09375 172.066406 207.253906 172.261719 207.410156 C 174.308594 209.039062 176.402344 210.640625 178.542969 212.167969 L 178.628906 212.234375 L 178.726562 212.3125 C 179.417969 212.804688 180.117188 213.277344 180.820312 213.75 L 181.59375 214.269531 C 181.765625 214.390625 181.9375 214.507812 182.109375 214.628906 C 182.386719 214.828125 182.664062 215.023438 182.953125 215.203125 C 184.484375 216.222656 186.035156 217.210938 187.613281 218.164062 C 187.753906 218.253906 187.894531 218.339844 188.035156 218.421875 C 188.113281 218.46875 188.191406 218.515625 188.269531 218.5625 C 189.628906 219.371094 191.007812 220.171875 192.386719 220.945312 C 192.722656 221.140625 193.058594 221.320312 193.398438 221.496094 L 193.851562 221.738281 L 194.421875 222.046875 C 195.1875 222.464844 195.953125 222.882812 196.730469 223.285156 C 196.875 223.359375 197.027344 223.425781 197.167969 223.492188 C 199.144531 224.5 201.140625 225.472656 203.175781 226.394531 C 203.457031 226.523438 203.746094 226.644531 204.03125 226.761719 L 204.503906 226.960938 C 206.128906 227.675781 207.773438 228.375 209.429688 229.035156 C 209.980469 229.25 210.539062 229.460938 211.09375 229.667969 L 211.539062 229.835938 C 213.039062 230.410156 214.542969 230.9375 216.058594 231.46875 L 216.824219 231.722656 C 217.25 231.867188 217.675781 232.007812 218.105469 232.144531 C 218.671875 232.328125 219.234375 232.523438 219.796875 232.71875 C 221.386719 233.269531 222.984375 233.820312 224.644531 234.105469 C 340.507812 254.015625 367.253906 161.492188 367.253906 161.492188 C 343.144531 197.511719 296.449219 214.695312 246.617188 201.28125 C 244.40625 200.675781 242.222656 200.019531 240.058594 199.308594 C 239.464844 199.125 238.882812 198.925781 238.292969 198.722656 L 238.085938 198.652344 C 236.542969 198.132812 235.011719 197.585938 233.496094 197.011719 L 233.445312 196.992188 C 232.769531 196.734375 232.085938 196.476562 231.421875 196.210938 C 229.757812 195.550781 228.113281 194.863281 226.484375 194.144531 C 226.371094 194.09375 226.261719 194.046875 226.148438 194 C 226.089844 193.972656 226.03125 193.949219 225.972656 193.925781 C 225.695312 193.804688 225.421875 193.691406 225.152344 193.558594 C 223.105469 192.636719 221.09375 191.664062 219.105469 190.648438 C 218.289062 190.230469 217.480469 189.796875 216.675781 189.363281 L 216.078125 189.046875 L 214.328125 188.113281 C 213.035156 187.386719 211.753906 186.632812 210.492188 185.867188 C 210.363281 185.792969 210.234375 185.71875 210.105469 185.644531 C 209.925781 185.542969 209.75 185.441406 209.574219 185.332031 C 208.003906 184.378906 206.460938 183.398438 204.929688 182.390625 C 204.660156 182.214844 204.402344 182.03125 204.140625 181.84375 C 203.9375 181.703125 203.734375 181.558594 203.527344 181.417969 C 202.519531 180.738281 201.511719 180.050781 200.519531 179.355469 C 198.382812 177.828125 196.308594 176.222656 194.257812 174.601562 L 193.742188 174.183594 C 193.441406 173.941406 193.144531 173.699219 192.847656 173.453125 C 171.039062 155.589844 153.75 131.183594 145.53125 103.503906 C 136.914062 74.800781 138.773438 42.578125 153.699219 16.429688 Z M 135.363281 43.277344 " fill-opacity="1" fill-rule="nonzero"/><path fill="#ffffff" d="M 39.042969 82.25 C 8.015625 128.507812 11.878906 188.6875 35.582031 237.839844 C 36.03125 238.785156 36.503906 239.71875 36.96875 240.644531 L 37.316406 241.335938 C 37.460938 241.621094 37.605469 241.910156 37.746094 242.199219 C 37.96875 242.652344 38.191406 243.109375 38.425781 243.550781 C 38.582031 243.863281 38.753906 244.167969 38.921875 244.46875 L 39.117188 244.824219 C 39.453125 245.476562 39.800781 246.105469 40.148438 246.738281 L 40.351562 247.113281 C 41.089844 248.464844 41.84375 249.800781 42.617188 251.140625 L 42.875 251.585938 C 43.214844 252.171875 43.554688 252.761719 43.90625 253.347656 C 44.761719 254.78125 45.636719 256.195312 46.535156 257.609375 L 46.796875 258.035156 C 47.078125 258.496094 47.359375 258.953125 47.652344 259.398438 C 48.886719 261.3125 50.152344 263.214844 51.453125 265.09375 L 51.46875 265.113281 C 51.496094 265.15625 51.527344 265.203125 51.5625 265.242188 C 51.671875 265.40625 51.789062 265.5625 51.90625 265.726562 C 52.007812 265.859375 52.109375 266 52.203125 266.140625 C 53.332031 267.75 54.496094 269.34375 55.671875 270.917969 C 56.105469 271.492188 56.539062 272.066406 56.976562 272.644531 C 58.027344 274.007812 59.09375 275.367188 60.179688 276.726562 C 60.585938 277.234375 60.992188 277.742188 61.402344 278.242188 C 62.859375 280.023438 64.347656 281.796875 65.863281 283.53125 L 65.957031 283.625 L 66.027344 283.703125 C 66.0625 283.742188 66.09375 283.777344 66.128906 283.824219 C 67.609375 285.5 69.128906 287.140625 70.664062 288.78125 C 71.140625 289.292969 71.625 289.800781 72.117188 290.300781 C 73.308594 291.542969 74.515625 292.769531 75.738281 293.984375 L 76.183594 294.425781 C 76.527344 294.773438 76.875 295.117188 77.222656 295.449219 C 78.851562 297.039062 80.503906 298.605469 82.183594 300.132812 C 82.210938 300.160156 82.234375 300.179688 82.261719 300.199219 C 82.421875 300.347656 82.582031 300.488281 82.746094 300.628906 C 82.871094 300.738281 83 300.851562 83.125 300.960938 C 84.605469 302.289062 86.113281 303.609375 87.632812 304.910156 C 87.980469 305.203125 88.332031 305.492188 88.679688 305.78125 L 89.5 306.457031 C 90.742188 307.484375 91.996094 308.503906 93.257812 309.503906 C 93.925781 310.027344 94.597656 310.558594 95.265625 311.085938 C 96.660156 312.152344 98.066406 313.199219 99.484375 314.226562 L 99.710938 314.394531 C 100.148438 314.722656 100.578125 315.042969 101.019531 315.359375 L 101.441406 315.667969 C 102.722656 316.582031 104.03125 317.464844 105.339844 318.34375 L 105.535156 318.476562 C 105.765625 318.632812 105.996094 318.792969 106.222656 318.953125 C 106.582031 319.207031 106.945312 319.460938 107.308594 319.703125 C 109.417969 321.089844 111.558594 322.453125 113.722656 323.773438 C 114.042969 323.96875 114.371094 324.15625 114.699219 324.347656 L 115.492188 324.8125 C 117.085938 325.765625 118.683594 326.699219 120.304688 327.609375 C 120.925781 327.957031 121.558594 328.292969 122.1875 328.621094 L 122.96875 329.035156 L 123.828125 329.503906 C 124.683594 329.972656 125.542969 330.441406 126.414062 330.894531 C 126.53125 330.953125 126.648438 331.007812 126.769531 331.070312 C 126.917969 331.140625 127.066406 331.214844 127.210938 331.289062 L 127.707031 331.535156 C 128.007812 331.683594 128.316406 331.835938 128.617188 331.996094 C 130.421875 332.890625 132.238281 333.765625 134.074219 334.617188 L 134.761719 334.933594 L 135.230469 335.152344 C 137.335938 336.105469 139.457031 337.019531 141.597656 337.898438 C 142.109375 338.113281 142.628906 338.320312 143.144531 338.527344 C 145.128906 339.320312 147.136719 340.101562 149.152344 340.839844 L 149.28125 340.882812 C 149.492188 340.960938 149.695312 341.03125 149.910156 341.113281 C 152.121094 341.914062 154.359375 342.65625 156.605469 343.382812 C 156.863281 343.460938 157.125 343.539062 157.382812 343.621094 C 157.664062 343.710938 157.945312 343.800781 158.226562 343.882812 C 158.808594 344.066406 159.394531 344.257812 159.976562 344.449219 C 161.675781 345.011719 163.382812 345.570312 165.140625 345.910156 C 315.207031 374.292969 358.796875 252.375 358.796875 252.375 C 322.1875 301.84375 257.199219 314.890625 195.632812 300.363281 C 193.789062 299.933594 191.992188 299.371094 190.195312 298.8125 C 189.714844 298.660156 189.238281 298.511719 188.757812 298.367188 C 188.183594 298.1875 187.613281 298.007812 187.046875 297.828125 C 184.824219 297.121094 182.621094 296.378906 180.429688 295.59375 L 179.519531 295.257812 C 177.558594 294.539062 175.617188 293.785156 173.6875 293.011719 L 172.050781 292.34375 C 169.933594 291.476562 167.828125 290.570312 165.75 289.628906 C 165.527344 289.527344 165.308594 289.425781 165.085938 289.324219 C 164.890625 289.234375 164.691406 289.140625 164.492188 289.054688 C 162.707031 288.214844 160.9375 287.363281 159.179688 286.488281 L 158.578125 286.1875 C 158.265625 286.039062 157.957031 285.882812 157.644531 285.726562 C 156.597656 285.195312 155.558594 284.636719 154.523438 284.082031 L 153.535156 283.554688 C 153.207031 283.375 152.875 283.199219 152.542969 283.023438 C 151.957031 282.710938 151.367188 282.398438 150.789062 282.0625 C 149.125 281.140625 147.492188 280.179688 145.867188 279.199219 L 145.226562 278.832031 C 144.886719 278.636719 144.542969 278.441406 144.203125 278.238281 C 142.039062 276.917969 139.902344 275.550781 137.785156 274.164062 C 137.410156 273.917969 137.042969 273.65625 136.671875 273.398438 L 136.054688 272.96875 C 134.523438 271.941406 132.996094 270.894531 131.492188 269.820312 C 131.238281 269.640625 130.988281 269.457031 130.738281 269.269531 C 130.5 269.09375 130.261719 268.917969 130.019531 268.746094 C 128.570312 267.679688 127.132812 266.605469 125.707031 265.511719 C 125.058594 265.011719 124.421875 264.511719 123.792969 264.011719 C 122.484375 262.972656 121.1875 261.929688 119.898438 260.855469 C 119.316406 260.375 118.734375 259.890625 118.164062 259.414062 C 116.527344 258.015625 114.910156 256.613281 113.3125 255.171875 C 113.222656 255.085938 113.125 255.003906 113.027344 254.921875 L 112.78125 254.707031 C 111.054688 253.132812 109.359375 251.519531 107.683594 249.898438 C 107.199219 249.421875 106.726562 248.949219 106.246094 248.46875 C 105.007812 247.242188 103.785156 246.007812 102.585938 244.742188 L 102.101562 244.246094 C 101.78125 243.917969 101.464844 243.585938 101.148438 243.253906 C 99.621094 241.632812 98.121094 239.992188 96.65625 238.324219 C 96.617188 238.28125 96.582031 238.242188 96.542969 238.203125 C 96.515625 238.171875 96.492188 238.144531 96.464844 238.117188 C 96.453125 238.105469 96.441406 238.089844 96.433594 238.078125 C 94.878906 236.316406 93.359375 234.515625 91.875 232.695312 L 90.679688 231.226562 C 89.570312 229.839844 88.46875 228.4375 87.398438 227.019531 C 86.996094 226.511719 86.59375 225.992188 86.195312 225.464844 C 84.902344 223.726562 83.640625 221.992188 82.40625 220.234375 C 48.222656 171.871094 35.941406 105.167969 63.261719 50.386719 Z M 39.042969 82.25 " fill-opacity="1" fill-rule="nonzero"/></svg>