<svg xmlns="http://www.w3.org/2000/svg" xmlns:xlink="http://www.w3.org/1999/xlink" width="500" zoomAndPan="magnify" viewBox="0 0 375 374.999991" height="500" preserveAspectRatio="xMidYMid meet" version="1.0"><defs><clipPath id="id1"><path d="M 118 16 L 367.9375 16 L 367.9375 237 L 118 237 Z M 118 16 " clip-rule="nonzero"/></clipPath></defs><path fill="#000000" d="M 210.9375 81.730469 C 201.761719 59.429688 203.0625 34.351562 216.285156 14.15625 L 226.183594 0 C 207.886719 34.292969 225.304688 76.398438 253.339844 98.472656 C 258.253906 102.324219 263.558594 105.691406 269.121094 108.464844 C 272.050781 109.921875 275.0625 111.214844 278.121094 112.34375 C 280.507812 113.222656 283.226562 114.148438 285.703125 114.773438 C 317.03125 122.664062 342.566406 117.214844 357.757812 94.515625 C 357.292969 95.210938 356.699219 96.316406 355.9375 97.722656 C 349.164062 110.269531 329.339844 146.988281 271.847656 135.464844 C 270.761719 135.253906 269.710938 134.898438 268.660156 134.542969 C 268.347656 134.4375 268.035156 134.332031 267.722656 134.230469 C 267.5 134.160156 267.277344 134.085938 267.058594 134.011719 C 266.855469 133.945312 266.65625 133.875 266.457031 133.8125 C 266.34375 133.773438 266.234375 133.734375 266.121094 133.695312 C 265.269531 133.398438 264.425781 133.101562 263.582031 132.777344 C 240.441406 123.972656 220.613281 105.402344 210.9375 81.730469 Z M 210.9375 81.730469 " fill-opacity="1" fill-rule="nonzero"/><g clip-path="url(#id1)"><path fill="#000000" d="M 135.308594 43.277344 C 112.878906 76.769531 114.09375 121.605469 131.59375 157.03125 C 134.527344 162.96875 137.824219 168.726562 141.515625 174.214844 C 141.910156 174.804688 142.3125 175.410156 142.722656 176.023438 C 145.765625 180.589844 149.128906 185.636719 153.0625 189.175781 C 154.679688 191.023438 156.367188 192.824219 158.09375 194.597656 C 158.417969 194.941406 158.75 195.277344 159.082031 195.613281 L 159.421875 195.953125 C 161.097656 197.640625 162.800781 199.300781 164.5625 200.914062 C 164.597656 200.941406 164.632812 200.972656 164.667969 201.007812 C 164.703125 201.039062 164.734375 201.074219 164.769531 201.101562 L 164.792969 201.121094 C 164.804688 201.128906 164.8125 201.136719 164.820312 201.148438 C 166.769531 202.921875 168.78125 204.628906 170.824219 206.304688 C 171.085938 206.511719 171.347656 206.722656 171.605469 206.9375 C 171.800781 207.09375 171.992188 207.253906 172.1875 207.410156 C 174.238281 209.039062 176.328125 210.640625 178.46875 212.167969 L 178.554688 212.234375 L 178.652344 212.3125 C 179.34375 212.804688 180.042969 213.277344 180.746094 213.75 L 181.519531 214.269531 C 181.691406 214.390625 181.863281 214.507812 182.03125 214.628906 C 182.3125 214.828125 182.589844 215.023438 182.875 215.203125 C 184.40625 216.222656 185.957031 217.210938 187.535156 218.164062 C 187.675781 218.253906 187.816406 218.339844 187.957031 218.421875 C 188.035156 218.46875 188.113281 218.515625 188.191406 218.5625 C 189.550781 219.371094 190.925781 220.171875 192.308594 220.945312 C 192.640625 221.140625 192.980469 221.320312 193.316406 221.496094 L 193.769531 221.738281 L 194.339844 222.046875 C 195.105469 222.464844 195.871094 222.882812 196.648438 223.285156 C 196.792969 223.359375 196.945312 223.425781 197.085938 223.492188 C 199.0625 224.5 201.054688 225.472656 203.09375 226.394531 C 203.371094 226.523438 203.660156 226.644531 203.945312 226.761719 L 204.417969 226.960938 C 206.042969 227.675781 207.6875 228.375 209.34375 229.035156 C 209.894531 229.25 210.453125 229.460938 211.007812 229.667969 L 211.449219 229.835938 C 212.949219 230.410156 214.453125 230.9375 215.96875 231.46875 L 216.734375 231.722656 C 217.160156 231.867188 217.582031 232.007812 218.011719 232.144531 C 218.578125 232.328125 219.140625 232.523438 219.707031 232.71875 C 221.296875 233.269531 222.890625 233.820312 224.550781 234.105469 C 340.363281 254.015625 367.101562 161.492188 367.101562 161.492188 C 343 197.511719 296.324219 214.695312 246.515625 201.28125 C 244.304688 200.675781 242.125 200.019531 239.957031 199.308594 C 239.363281 199.125 238.78125 198.925781 238.195312 198.722656 L 237.984375 198.652344 C 236.445312 198.132812 234.914062 197.585938 233.398438 197.011719 L 233.347656 196.992188 C 232.671875 196.734375 231.992188 196.476562 231.324219 196.210938 C 229.664062 195.550781 228.019531 194.863281 226.386719 194.144531 C 226.277344 194.09375 226.167969 194.046875 226.054688 194 C 225.996094 193.972656 225.9375 193.949219 225.878906 193.925781 C 225.601562 193.804688 225.328125 193.691406 225.058594 193.558594 C 223.011719 192.636719 221 191.664062 219.015625 190.648438 C 218.195312 190.230469 217.386719 189.796875 216.582031 189.363281 L 215.988281 189.046875 L 214.238281 188.113281 C 212.949219 187.386719 211.664062 186.632812 210.402344 185.867188 C 210.277344 185.792969 210.148438 185.71875 210.019531 185.644531 C 209.839844 185.542969 209.660156 185.441406 209.484375 185.332031 C 207.917969 184.378906 206.375 183.398438 204.84375 182.390625 C 204.578125 182.214844 204.316406 182.03125 204.054688 181.84375 C 203.851562 181.703125 203.648438 181.558594 203.445312 181.417969 C 202.433594 180.738281 201.429688 180.050781 200.4375 179.355469 C 198.300781 177.828125 196.226562 176.222656 194.175781 174.601562 L 193.664062 174.183594 C 193.363281 173.941406 193.0625 173.699219 192.769531 173.453125 C 170.96875 155.589844 153.6875 131.183594 145.46875 103.503906 C 136.859375 74.800781 138.714844 42.578125 153.632812 16.429688 Z M 135.308594 43.277344 " fill-opacity="1" fill-rule="nonzero"/></g><path fill="#000000" d="M 39.027344 82.25 C 8.011719 128.507812 11.875 188.6875 35.566406 237.839844 C 36.019531 238.785156 36.488281 239.71875 36.957031 240.644531 L 37.300781 241.335938 C 37.449219 241.621094 37.589844 241.910156 37.730469 242.199219 C 37.953125 242.652344 38.175781 243.109375 38.410156 243.550781 C 38.566406 243.863281 38.738281 244.167969 38.90625 244.46875 L 39.101562 244.824219 C 39.4375 245.476562 39.785156 246.105469 40.132812 246.738281 L 40.335938 247.113281 C 41.074219 248.464844 41.828125 249.800781 42.597656 251.140625 L 42.855469 251.585938 C 43.195312 252.171875 43.539062 252.761719 43.890625 253.347656 C 44.742188 254.78125 45.621094 256.195312 46.515625 257.609375 L 46.777344 258.035156 C 47.058594 258.496094 47.339844 258.953125 47.632812 259.398438 C 48.867188 261.3125 50.128906 263.214844 51.433594 265.09375 L 51.445312 265.113281 C 51.476562 265.15625 51.507812 265.203125 51.542969 265.242188 C 51.652344 265.40625 51.769531 265.5625 51.886719 265.726562 C 51.984375 265.859375 52.085938 266 52.183594 266.140625 C 53.308594 267.75 54.472656 269.34375 55.648438 270.917969 C 56.082031 271.492188 56.515625 272.066406 56.953125 272.644531 C 58.003906 274.007812 59.070312 275.367188 60.15625 276.726562 C 60.558594 277.234375 60.96875 277.742188 61.378906 278.242188 C 62.835938 280.023438 64.320312 281.796875 65.839844 283.53125 L 65.929688 283.625 L 66 283.703125 C 66.035156 283.742188 66.066406 283.777344 66.101562 283.824219 C 67.582031 285.5 69.097656 287.140625 70.636719 288.78125 C 71.113281 289.292969 71.597656 289.800781 72.089844 290.300781 C 73.277344 291.542969 74.488281 292.769531 75.707031 293.984375 L 76.152344 294.425781 C 76.496094 294.773438 76.84375 295.117188 77.191406 295.449219 C 78.820312 297.039062 80.46875 298.605469 82.148438 300.132812 C 82.175781 300.160156 82.199219 300.179688 82.226562 300.199219 C 82.386719 300.347656 82.550781 300.488281 82.710938 300.628906 C 82.839844 300.738281 82.96875 300.851562 83.089844 300.960938 C 84.570312 302.289062 86.078125 303.609375 87.597656 304.910156 C 87.945312 305.203125 88.292969 305.492188 88.644531 305.78125 L 89.464844 306.457031 C 90.703125 307.484375 91.957031 308.503906 93.21875 309.503906 C 93.886719 310.027344 94.558594 310.558594 95.226562 311.085938 C 96.621094 312.152344 98.027344 313.199219 99.441406 314.226562 L 99.667969 314.394531 C 100.105469 314.722656 100.539062 315.042969 100.976562 315.359375 L 101.402344 315.667969 C 102.679688 316.582031 103.988281 317.464844 105.296875 318.34375 L 105.492188 318.476562 C 105.722656 318.632812 105.949219 318.792969 106.179688 318.953125 C 106.539062 319.207031 106.902344 319.460938 107.265625 319.703125 C 109.371094 321.089844 111.511719 322.453125 113.675781 323.773438 C 113.996094 323.96875 114.324219 324.15625 114.652344 324.347656 L 115.445312 324.8125 C 117.035156 325.765625 118.636719 326.699219 120.257812 327.609375 C 120.875 327.957031 121.507812 328.292969 122.136719 328.621094 L 122.917969 329.035156 L 123.777344 329.503906 C 124.632812 329.972656 125.488281 330.441406 126.363281 330.894531 C 126.480469 330.953125 126.597656 331.007812 126.714844 331.070312 C 126.863281 331.140625 127.011719 331.214844 127.15625 331.289062 L 127.652344 331.535156 C 127.957031 331.683594 128.261719 331.835938 128.566406 331.996094 C 130.367188 332.890625 132.183594 333.765625 134.019531 334.617188 L 134.707031 334.933594 L 135.175781 335.152344 C 137.277344 336.105469 139.398438 337.019531 141.539062 337.898438 C 142.050781 338.113281 142.570312 338.320312 143.085938 338.527344 C 145.066406 339.320312 147.074219 340.101562 149.09375 340.839844 L 149.21875 340.882812 C 149.429688 340.960938 149.632812 341.03125 149.847656 341.113281 C 152.058594 341.914062 154.292969 342.65625 156.542969 343.382812 C 156.800781 343.460938 157.058594 343.539062 157.316406 343.621094 C 157.597656 343.710938 157.878906 343.800781 158.160156 343.882812 C 158.742188 344.066406 159.328125 344.257812 159.910156 344.449219 C 161.609375 345.011719 163.316406 345.570312 165.070312 345.910156 C 315.074219 374.292969 358.644531 252.375 358.644531 252.375 C 322.050781 301.84375 257.09375 314.890625 195.550781 300.363281 C 193.710938 299.933594 191.910156 299.371094 190.117188 298.8125 C 189.636719 298.660156 189.160156 298.511719 188.679688 298.367188 C 188.105469 298.1875 187.535156 298.007812 186.96875 297.828125 C 184.746094 297.121094 182.542969 296.378906 180.355469 295.59375 L 179.445312 295.257812 C 177.484375 294.539062 175.542969 293.785156 173.613281 293.011719 L 171.980469 292.34375 C 169.859375 291.476562 167.757812 290.570312 165.683594 289.628906 C 165.457031 289.527344 165.238281 289.425781 165.019531 289.324219 C 164.820312 289.234375 164.625 289.140625 164.425781 289.054688 C 162.640625 288.214844 160.871094 287.363281 159.113281 286.488281 L 158.511719 286.1875 C 158.203125 286.039062 157.890625 285.882812 157.578125 285.726562 C 156.53125 285.195312 155.492188 284.636719 154.460938 284.082031 L 153.46875 283.554688 C 153.140625 283.375 152.8125 283.199219 152.480469 283.023438 C 151.894531 282.710938 151.304688 282.398438 150.726562 282.0625 C 149.066406 281.140625 147.429688 280.179688 145.804688 279.199219 L 145.167969 278.832031 C 144.824219 278.636719 144.484375 278.441406 144.140625 278.238281 C 141.980469 276.917969 139.84375 275.550781 137.730469 274.164062 C 137.355469 273.917969 136.984375 273.65625 136.613281 273.398438 L 136 272.96875 C 134.464844 271.941406 132.941406 270.894531 131.4375 269.820312 C 131.183594 269.640625 130.933594 269.457031 130.683594 269.269531 C 130.445312 269.09375 130.207031 268.917969 129.96875 268.746094 C 128.515625 267.679688 127.078125 266.605469 125.65625 265.511719 C 125.007812 265.011719 124.371094 264.511719 123.742188 264.011719 C 122.4375 262.972656 121.136719 261.929688 119.847656 260.855469 C 119.269531 260.375 118.6875 259.890625 118.113281 259.414062 C 116.480469 258.015625 114.863281 256.613281 113.265625 255.171875 C 113.175781 255.085938 113.078125 255.003906 112.980469 254.921875 L 112.734375 254.707031 C 111.007812 253.132812 109.316406 251.519531 107.640625 249.898438 C 107.152344 249.421875 106.679688 248.949219 106.203125 248.46875 C 104.964844 247.242188 103.742188 246.007812 102.542969 244.742188 L 102.058594 244.246094 C 101.742188 243.917969 101.421875 243.585938 101.105469 243.253906 C 99.582031 241.632812 98.082031 239.992188 96.613281 238.324219 C 96.578125 238.28125 96.539062 238.242188 96.503906 238.203125 C 96.476562 238.171875 96.449219 238.144531 96.425781 238.117188 C 96.414062 238.105469 96.402344 238.089844 96.390625 238.078125 C 94.839844 236.316406 93.320312 234.515625 91.835938 232.695312 L 90.640625 231.226562 C 89.53125 229.839844 88.433594 228.4375 87.363281 227.019531 C 86.960938 226.511719 86.558594 225.992188 86.160156 225.464844 C 84.867188 223.726562 83.605469 221.992188 82.371094 220.234375 C 48.203125 171.871094 35.925781 105.167969 63.238281 50.386719 Z M 39.027344 82.25 " fill-opacity="1" fill-rule="nonzero"/></svg>