<svg xmlns="http://www.w3.org/2000/svg" xmlns:xlink="http://www.w3.org/1999/xlink" width="500" zoomAndPan="magnify" viewBox="0 0 375 374.999991" height="500" preserveAspectRatio="xMidYMid meet" version="1.0"><defs><g/></defs><g fill="#880000" fill-opacity="1"><g transform="translate(0.021803, 205.22269)"><g><path d="M 27.4375 0 L 17.109375 -36.34375 L 16.8125 -36.34375 C 17.289062 -30.144531 17.53125 -25.332031 17.53125 -21.90625 L 17.53125 0 L 5.453125 0 L 5.453125 -50.453125 L 23.609375 -50.453125 L 34.125 -14.625 L 34.40625 -14.625 L 44.71875 -50.453125 L 62.90625 -50.453125 L 62.90625 0 L 50.375 0 L 50.375 -22.125 C 50.375 -23.269531 50.390625 -24.546875 50.421875 -25.953125 C 50.460938 -27.359375 50.625 -30.796875 50.90625 -36.265625 L 50.59375 -36.265625 L 40.40625 0 Z M 27.4375 0 "/></g></g></g><g fill="#880000" fill-opacity="1"><g transform="translate(68.34612, 205.22269)"><g><path d="M 42 -19.640625 C 42 -13.242188 40.273438 -8.253906 36.828125 -4.671875 C 33.390625 -1.097656 28.578125 0.6875 22.390625 0.6875 C 16.460938 0.6875 11.742188 -1.140625 8.234375 -4.796875 C 4.722656 -8.453125 2.96875 -13.398438 2.96875 -19.640625 C 2.96875 -26.003906 4.6875 -30.953125 8.125 -34.484375 C 11.5625 -38.015625 16.390625 -39.78125 22.609375 -39.78125 C 26.441406 -39.78125 29.832031 -38.960938 32.78125 -37.328125 C 35.726562 -35.703125 38 -33.363281 39.59375 -30.3125 C 41.195312 -27.269531 42 -23.710938 42 -19.640625 Z M 16.671875 -19.640625 C 16.671875 -16.273438 17.117188 -13.710938 18.015625 -11.953125 C 18.910156 -10.191406 20.414062 -9.3125 22.53125 -9.3125 C 24.625 -9.3125 26.101562 -10.191406 26.96875 -11.953125 C 27.832031 -13.710938 28.265625 -16.273438 28.265625 -19.640625 C 28.265625 -22.972656 27.828125 -25.488281 26.953125 -27.1875 C 26.078125 -28.894531 24.582031 -29.75 22.46875 -29.75 C 20.394531 -29.75 18.910156 -28.898438 18.015625 -27.203125 C 17.117188 -25.515625 16.671875 -22.992188 16.671875 -19.640625 Z M 16.671875 -19.640625 "/></g></g></g><g fill="#880000" fill-opacity="1"><g transform="translate(113.378056, 205.22269)"><g><path d="M 29.328125 0 L 29.328125 -21.328125 C 29.328125 -23.921875 28.953125 -25.878906 28.203125 -27.203125 C 27.460938 -28.523438 26.265625 -29.1875 24.609375 -29.1875 C 22.328125 -29.1875 20.679688 -28.273438 19.671875 -26.453125 C 18.660156 -24.640625 18.15625 -21.523438 18.15625 -17.109375 L 18.15625 0 L 4.65625 0 L 4.65625 -39.09375 L 14.84375 -39.09375 L 16.53125 -34.265625 L 17.328125 -34.265625 C 18.472656 -36.109375 20.0625 -37.488281 22.09375 -38.40625 C 24.132812 -39.320312 26.476562 -39.78125 29.125 -39.78125 C 33.445312 -39.78125 36.8125 -38.523438 39.21875 -36.015625 C 41.625 -33.515625 42.828125 -29.988281 42.828125 -25.4375 L 42.828125 0 Z M 29.328125 0 "/></g></g></g><g fill="#880000" fill-opacity="1"><g transform="translate(160.721977, 205.22269)"><g><path d="M 41.546875 -39.09375 L 41.546875 -32.578125 L 36.203125 -30.609375 C 36.929688 -29.273438 37.296875 -27.722656 37.296875 -25.953125 C 37.296875 -21.742188 35.816406 -18.476562 32.859375 -16.15625 C 29.910156 -13.832031 25.503906 -12.671875 19.640625 -12.671875 C 18.179688 -12.671875 17.03125 -12.757812 16.1875 -12.9375 C 15.863281 -12.34375 15.703125 -11.78125 15.703125 -11.25 C 15.703125 -10.582031 16.238281 -10.066406 17.3125 -9.703125 C 18.394531 -9.347656 19.8125 -9.171875 21.5625 -9.171875 L 28.0625 -9.171875 C 36.820312 -9.171875 41.203125 -5.484375 41.203125 1.890625 C 41.203125 6.660156 39.171875 10.367188 35.109375 13.015625 C 31.046875 15.660156 25.347656 16.984375 18.015625 16.984375 C 12.472656 16.984375 8.195312 16.054688 5.1875 14.203125 C 2.1875 12.347656 0.6875 9.6875 0.6875 6.21875 C 0.6875 1.539062 3.585938 -1.472656 9.390625 -2.828125 C 8.191406 -3.335938 7.148438 -4.15625 6.265625 -5.28125 C 5.378906 -6.40625 4.9375 -7.519531 4.9375 -8.625 C 4.9375 -9.84375 5.269531 -10.914062 5.9375 -11.84375 C 6.601562 -12.78125 7.992188 -13.894531 10.109375 -15.1875 C 8.085938 -16.082031 6.492188 -17.484375 5.328125 -19.390625 C 4.171875 -21.296875 3.59375 -23.617188 3.59375 -26.359375 C 3.59375 -30.617188 5.039062 -33.921875 7.9375 -36.265625 C 10.832031 -38.609375 14.972656 -39.78125 20.359375 -39.78125 C 21.066406 -39.78125 22.296875 -39.695312 24.046875 -39.53125 C 25.796875 -39.375 27.085938 -39.226562 27.921875 -39.09375 Z M 12.078125 4.859375 C 12.078125 5.960938 12.675781 6.851562 13.875 7.53125 C 15.070312 8.21875 16.671875 8.5625 18.671875 8.5625 C 21.929688 8.5625 24.546875 8.148438 26.515625 7.328125 C 28.484375 6.515625 29.46875 5.460938 29.46875 4.171875 C 29.46875 3.140625 28.867188 2.410156 27.671875 1.984375 C 26.472656 1.554688 24.757812 1.34375 22.53125 1.34375 L 17.25 1.34375 C 15.800781 1.34375 14.578125 1.679688 13.578125 2.359375 C 12.578125 3.035156 12.078125 3.867188 12.078125 4.859375 Z M 16.328125 -26.296875 C 16.328125 -22.296875 17.71875 -20.296875 20.5 -20.296875 C 21.789062 -20.296875 22.785156 -20.789062 23.484375 -21.78125 C 24.179688 -22.769531 24.53125 -24.25 24.53125 -26.21875 C 24.53125 -30.269531 23.1875 -32.296875 20.5 -32.296875 C 17.71875 -32.296875 16.328125 -30.296875 16.328125 -26.296875 Z M 16.328125 -26.296875 "/></g></g></g><g fill="#880000" fill-opacity="1"><g transform="translate(203.54545, 205.22269)"><g><path d="M 42 -19.640625 C 42 -13.242188 40.273438 -8.253906 36.828125 -4.671875 C 33.390625 -1.097656 28.578125 0.6875 22.390625 0.6875 C 16.460938 0.6875 11.742188 -1.140625 8.234375 -4.796875 C 4.722656 -8.453125 2.96875 -13.398438 2.96875 -19.640625 C 2.96875 -26.003906 4.6875 -30.953125 8.125 -34.484375 C 11.5625 -38.015625 16.390625 -39.78125 22.609375 -39.78125 C 26.441406 -39.78125 29.832031 -38.960938 32.78125 -37.328125 C 35.726562 -35.703125 38 -33.363281 39.59375 -30.3125 C 41.195312 -27.269531 42 -23.710938 42 -19.640625 Z M 16.671875 -19.640625 C 16.671875 -16.273438 17.117188 -13.710938 18.015625 -11.953125 C 18.910156 -10.191406 20.414062 -9.3125 22.53125 -9.3125 C 24.625 -9.3125 26.101562 -10.191406 26.96875 -11.953125 C 27.832031 -13.710938 28.265625 -16.273438 28.265625 -19.640625 C 28.265625 -22.972656 27.828125 -25.488281 26.953125 -27.1875 C 26.078125 -28.894531 24.582031 -29.75 22.46875 -29.75 C 20.394531 -29.75 18.910156 -28.898438 18.015625 -27.203125 C 17.117188 -25.515625 16.671875 -22.992188 16.671875 -19.640625 Z M 16.671875 -19.640625 "/></g></g></g><g fill="#880000" fill-opacity="1"><g transform="translate(248.577387, 205.22269)"><g><path d="M 42 -19.640625 C 42 -13.242188 40.273438 -8.253906 36.828125 -4.671875 C 33.390625 -1.097656 28.578125 0.6875 22.390625 0.6875 C 16.460938 0.6875 11.742188 -1.140625 8.234375 -4.796875 C 4.722656 -8.453125 2.96875 -13.398438 2.96875 -19.640625 C 2.96875 -26.003906 4.6875 -30.953125 8.125 -34.484375 C 11.5625 -38.015625 16.390625 -39.78125 22.609375 -39.78125 C 26.441406 -39.78125 29.832031 -38.960938 32.78125 -37.328125 C 35.726562 -35.703125 38 -33.363281 39.59375 -30.3125 C 41.195312 -27.269531 42 -23.710938 42 -19.640625 Z M 16.671875 -19.640625 C 16.671875 -16.273438 17.117188 -13.710938 18.015625 -11.953125 C 18.910156 -10.191406 20.414062 -9.3125 22.53125 -9.3125 C 24.625 -9.3125 26.101562 -10.191406 26.96875 -11.953125 C 27.832031 -13.710938 28.265625 -16.273438 28.265625 -19.640625 C 28.265625 -22.972656 27.828125 -25.488281 26.953125 -27.1875 C 26.078125 -28.894531 24.582031 -29.75 22.46875 -29.75 C 20.394531 -29.75 18.910156 -28.898438 18.015625 -27.203125 C 17.117188 -25.515625 16.671875 -22.992188 16.671875 -19.640625 Z M 16.671875 -19.640625 "/></g></g></g><g fill="#880000" fill-opacity="1"><g transform="translate(293.609323, 205.22269)"><g><path d="M 34.859375 -12.015625 C 34.859375 -7.828125 33.429688 -4.660156 30.578125 -2.515625 C 27.722656 -0.378906 23.628906 0.6875 18.296875 0.6875 C 15.390625 0.6875 12.863281 0.53125 10.71875 0.21875 C 8.582031 -0.0820312 6.398438 -0.648438 4.171875 -1.484375 L 4.171875 -12.28125 C 6.265625 -11.363281 8.554688 -10.601562 11.046875 -10 C 13.546875 -9.40625 15.773438 -9.109375 17.734375 -9.109375 C 20.660156 -9.109375 22.125 -9.773438 22.125 -11.109375 C 22.125 -11.796875 21.710938 -12.410156 20.890625 -12.953125 C 20.078125 -13.492188 17.703125 -14.546875 13.765625 -16.109375 C 10.179688 -17.585938 7.675781 -19.265625 6.25 -21.140625 C 4.820312 -23.015625 4.109375 -25.390625 4.109375 -28.265625 C 4.109375 -31.898438 5.507812 -34.726562 8.3125 -36.75 C 11.125 -38.769531 15.09375 -39.78125 20.21875 -39.78125 C 22.800781 -39.78125 25.222656 -39.5 27.484375 -38.9375 C 29.753906 -38.375 32.109375 -37.550781 34.546875 -36.46875 L 30.890625 -27.78125 C 29.085938 -28.582031 27.1875 -29.265625 25.1875 -29.828125 C 23.1875 -30.390625 21.554688 -30.671875 20.296875 -30.671875 C 18.085938 -30.671875 16.984375 -30.132812 16.984375 -29.0625 C 16.984375 -28.394531 17.367188 -27.820312 18.140625 -27.34375 C 18.910156 -26.875 21.132812 -25.914062 24.8125 -24.46875 C 27.550781 -23.34375 29.59375 -22.238281 30.9375 -21.15625 C 32.28125 -20.070312 33.269531 -18.800781 33.90625 -17.34375 C 34.539062 -15.882812 34.859375 -14.109375 34.859375 -12.015625 Z M 34.859375 -12.015625 "/></g></g></g><g fill="#880000" fill-opacity="1"><g transform="translate(331.29122, 205.22269)"><g><path d="M 23.53125 0.6875 C 17.019531 0.6875 11.960938 -1.039062 8.359375 -4.5 C 4.765625 -7.96875 2.96875 -12.898438 2.96875 -19.296875 C 2.96875 -25.890625 4.632812 -30.953125 7.96875 -34.484375 C 11.300781 -38.015625 16.0625 -39.78125 22.25 -39.78125 C 28.144531 -39.78125 32.695312 -38.242188 35.90625 -35.171875 C 39.113281 -32.109375 40.71875 -27.6875 40.71875 -21.90625 L 40.71875 -15.90625 L 16.59375 -15.90625 C 16.6875 -13.71875 17.484375 -12.003906 18.984375 -10.765625 C 20.492188 -9.523438 22.550781 -8.90625 25.15625 -8.90625 C 27.519531 -8.90625 29.695312 -9.128906 31.6875 -9.578125 C 33.6875 -10.023438 35.847656 -10.789062 38.171875 -11.875 L 38.171875 -2.171875 C 36.046875 -1.085938 33.859375 -0.34375 31.609375 0.0625 C 29.359375 0.476562 26.664062 0.6875 23.53125 0.6875 Z M 22.734375 -30.609375 C 21.148438 -30.609375 19.820312 -30.109375 18.75 -29.109375 C 17.6875 -28.109375 17.0625 -26.535156 16.875 -24.390625 L 28.46875 -24.390625 C 28.425781 -26.285156 27.890625 -27.796875 26.859375 -28.921875 C 25.835938 -30.046875 24.460938 -30.609375 22.734375 -30.609375 Z M 22.734375 -30.609375 "/></g></g></g></svg>