<svg xmlns="http://www.w3.org/2000/svg" xmlns:xlink="http://www.w3.org/1999/xlink" width="500" zoomAndPan="magnify" viewBox="0 0 375 374.999991" height="500" preserveAspectRatio="xMidYMid meet" version="1.0"><defs><clipPath id="id1"><path d="M 2.046875 82 L 296 82 L 296 375 L 2.046875 375 Z M 2.046875 82 " clip-rule="nonzero"/></clipPath></defs><path fill="#ffffff" d="M 210.117188 135.960938 L 228.25 187.714844 C 229.113281 190.734375 232.132812 192.027344 235.15625 191.164062 L 284.800781 173.914062 C 285.664062 173.914062 286.09375 174.347656 286.527344 174.777344 C 286.527344 175.207031 286.527344 175.640625 286.527344 176.070312 C 277.894531 189.441406 281.777344 207.125 294.730469 215.316406 C 299.476562 218.335938 310.699219 221.785156 319.765625 218.335938 C 334.445312 213.160156 342.644531 196.773438 337.464844 182.109375 C 334.445312 173.914062 327.96875 167.445312 319.765625 164.425781 C 319.335938 164.425781 318.902344 163.996094 318.902344 163.5625 C 318.472656 163.132812 318.902344 162.269531 319.335938 161.839844 L 368.980469 144.589844 C 372 143.726562 373.296875 140.707031 372.433594 137.6875 L 324.945312 4.421875 C 324.082031 1.835938 321.0625 0.109375 318.039062 0.972656 L 185.082031 47.980469 C 182.058594 48.84375 180.761719 51.863281 181.625 54.882812 L 199.757812 106.636719 C 202.347656 111.8125 208.390625 113.96875 214.003906 111.8125 C 217.457031 110.515625 220.480469 107.929688 221.34375 104.046875 C 224.363281 94.558594 234.722656 89.816406 243.789062 92.835938 C 248.96875 94.558594 252.855469 98.441406 255.011719 103.617188 C 258.46875 112.671875 253.285156 123.023438 244.222656 126.042969 C 239.042969 127.769531 232.996094 127.335938 228.679688 124.316406 C 225.660156 122.160156 221.773438 121.730469 217.886719 123.023438 C 217.886719 123.457031 207.097656 127.335938 210.117188 135.960938 Z M 210.117188 135.960938 " fill-opacity="1" fill-rule="nonzero"/><g clip-path="url(#id1)"><path fill="#ffffff" d="M 289.980469 223.511719 C 289.980469 223.511719 234.722656 223.511719 234.292969 223.511719 C 229.113281 223.511719 223.933594 231.707031 225.226562 238.175781 C 226.089844 240.761719 227.386719 243.351562 229.976562 245.074219 C 237.746094 251.113281 239.042969 262.328125 232.996094 270.089844 C 229.542969 274.402344 224.363281 276.988281 219.183594 276.988281 C 209.253906 276.988281 201.484375 269.226562 201.484375 259.308594 C 201.484375 253.699219 204.074219 248.527344 208.390625 245.074219 C 213.570312 240.761719 214.433594 233 210.550781 227.824219 C 208.824219 225.667969 205.800781 223.511719 204.074219 223.511719 C 203.644531 223.511719 153.136719 223.082031 153.136719 223.082031 L 153.136719 175.640625 C 153.136719 174.777344 154 174.347656 154.429688 174.347656 C 154.863281 174.347656 155.292969 174.347656 155.292969 174.777344 C 160.472656 181.679688 169.109375 185.992188 177.742188 185.992188 C 193.714844 185.992188 206.234375 173.484375 206.664062 157.527344 C 207.097656 141.570312 194.144531 129.0625 178.171875 128.628906 C 169.109375 128.628906 160.90625 132.511719 155.292969 139.84375 C 154.863281 140.273438 154.429688 140.273438 154 140.273438 C 153.136719 140.273438 152.703125 139.84375 152.703125 138.980469 L 152.703125 87.660156 C 152.703125 84.640625 150.113281 82.484375 147.523438 82.484375 L 7.226562 82.484375 C 4.203125 82.484375 2.046875 85.070312 2.046875 87.660156 L 2.046875 369.714844 C 2.046875 372.734375 4.203125 374.890625 7.226562 374.890625 L 289.980469 374.890625 C 293 374.890625 295.59375 372.734375 295.59375 369.714844 L 295.59375 228.6875 C 295.59375 227.394531 295.160156 226.097656 293.863281 224.804688 C 293 223.941406 291.707031 223.511719 289.980469 223.511719 Z M 201.917969 233.863281 C 202.347656 234.292969 202.347656 234.726562 202.347656 235.15625 C 202.347656 235.585938 202.347656 236.019531 201.917969 236.019531 C 189.398438 245.507812 187.238281 263.621094 196.734375 276.128906 C 197.167969 276.558594 197.597656 276.988281 197.597656 277.421875 C 192.417969 273.109375 185.945312 270.519531 179.035156 270.519531 C 166.085938 270.089844 160.90625 275.265625 155.726562 281.734375 C 154.863281 283.027344 154 281.734375 154 280.871094 L 154 233.863281 Z M 12.40625 92.835938 L 142.773438 92.835938 C 142.773438 92.835938 142.773438 140.707031 142.773438 140.707031 C 143.636719 147.175781 149.683594 152.351562 156.15625 151.488281 C 159.179688 151.058594 162.199219 149.332031 164.359375 147.175781 C 170.402344 139.414062 181.625 138.117188 189.398438 143.726562 C 197.167969 149.761719 198.460938 160.976562 192.851562 168.738281 C 186.808594 176.503906 175.582031 177.796875 167.8125 172.191406 C 166.519531 171.328125 165.65625 170.035156 164.359375 168.738281 C 160.042969 163.5625 152.273438 162.703125 147.09375 167.015625 C 144.5 169.171875 142.773438 171.757812 142.773438 175.207031 C 142.773438 175.207031 142.773438 223.082031 142.773438 223.082031 L 94.859375 223.082031 C 94.425781 223.082031 94.425781 221.785156 95.289062 221.355469 C 102.195312 216.179688 106.511719 207.554688 106.511719 198.929688 C 106.511719 182.972656 93.5625 170.464844 78.023438 170.464844 C 62.480469 170.464844 49.53125 183.402344 49.53125 198.929688 C 49.53125 207.554688 53.417969 216.179688 60.753906 221.355469 C 61.617188 221.785156 61.617188 223.511719 60.753906 223.511719 L 12.40625 223.511719 Z M 284.367188 364.539062 L 154 364.539062 L 154 317.53125 C 154 316.667969 155.292969 315.375 156.15625 316.667969 C 165.65625 329.175781 179.46875 327.878906 179.46875 327.878906 C 195.441406 327.878906 207.960938 314.941406 207.960938 299.417969 C 207.960938 292.515625 205.371094 286.046875 201.050781 280.871094 C 206.234375 285.183594 212.707031 287.773438 219.613281 287.773438 C 235.585938 287.773438 248.105469 274.832031 248.105469 259.308594 C 248.105469 250.683594 244.222656 242.054688 236.882812 236.882812 C 236.449219 236.449219 236.449219 236.019531 236.449219 235.585938 C 236.449219 235.15625 236.882812 234.726562 237.3125 234.292969 L 284.800781 234.292969 Z M 284.367188 364.539062 " fill-opacity="1" fill-rule="nonzero"/></g></svg>