<svg xmlns="http://www.w3.org/2000/svg" xmlns:xlink="http://www.w3.org/1999/xlink" width="336" zoomAndPan="magnify" viewBox="0 0 252 143.999998" height="192" preserveAspectRatio="xMidYMid meet" version="1.0"><defs><clipPath id="id1"><path d="M 229.09375 102.03125 L 252 102.03125 L 252 144 L 229.09375 144 Z M 229.09375 102.03125 " clip-rule="nonzero"/></clipPath><clipPath id="id2"><path d="M 0 0 L 18 0 L 18 48 L 0 48 Z M 0 0 " clip-rule="nonzero"/></clipPath><clipPath id="id3"><path d="M -69.507812 11.015625 L -18.597656 -39.894531 L 32.316406 11.015625 L -18.597656 61.929688 Z M -69.507812 11.015625 " clip-rule="nonzero"/></clipPath><clipPath id="id4"><path d="M -69.507812 11.015625 L -18.597656 -39.894531 L 32.316406 11.015625 L -18.597656 61.929688 Z M -69.507812 11.015625 " clip-rule="nonzero"/></clipPath></defs><rect x="-25.2" width="302.4" fill="#ffffff" y="-14.4" height="172.799997" fill-opacity="1"/><rect x="-25.2" width="302.4" fill="#212f3e" y="-14.4" height="172.799997" fill-opacity="1"/><rect x="-25.2" width="302.4" fill="#ffffff" y="-14.4" height="172.799997" fill-opacity="1"/><rect x="-25.2" width="302.4" fill="#212f3e" y="-14.4" height="172.799997" fill-opacity="1"/><path fill="#eeeeee" d="M 262.816406 173.359375 L 262.816406 108.339844 C 262.777344 108.339844 262.742188 108.339844 262.707031 108.339844 C 262.347656 108.339844 261.988281 108.320312 261.632812 108.320312 C 243.363281 108.320312 236.976562 145.046875 236.976562 157.183594 C 236.976562 173.117188 242.382812 172.074219 262.816406 173.359375 Z M 262.816406 173.359375 " fill-opacity="1" fill-rule="nonzero"/><g clip-path="url(#id1)"><path fill="#eeeeee" d="M 262.816406 178.441406 C 245.707031 178.238281 230.722656 176.871094 230.722656 159.902344 C 230.722656 156.199219 231.621094 146.550781 235.914062 136.742188 C 249.136719 106.535156 253.4375 105.089844 262.816406 103.257812 L 262.816406 101.902344 C 240.074219 105.1875 229.140625 150.261719 229.140625 159.875 C 229.140625 171.472656 234.414062 179.902344 261.351562 179.902344 C 261.839844 179.902344 262.328125 179.824219 262.816406 179.792969 Z M 262.816406 178.441406 " fill-opacity="1" fill-rule="nonzero"/></g><g clip-path="url(#id2)"><g clip-path="url(#id3)"><g clip-path="url(#id4)"><path fill="#445363" d="M -45.019531 -13.445312 L 5.855469 37.429688 C 5.171875 38.0625 4.46875 38.664062 3.75 39.234375 L -46.828125 -11.339844 C -46.253906 -12.058594 -45.652344 -12.761719 -45.019531 -13.445312 Z M -43.058594 -15.40625 C -42.375 -16.039062 -41.671875 -16.640625 -40.953125 -17.214844 L 9.621094 33.363281 C 9.050781 34.082031 8.449219 34.785156 7.8125 35.46875 Z M -48.480469 -9.078125 L 1.488281 40.890625 C 0.695312 41.425781 -0.109375 41.921875 -0.933594 42.386719 L -49.976562 -6.65625 C -49.511719 -7.480469 -49.015625 -8.285156 -48.480469 -9.078125 Z M -38.691406 -18.867188 C -37.902344 -19.402344 -37.09375 -19.898438 -36.269531 -20.363281 L 12.773438 28.679688 C 12.308594 29.5 11.8125 30.308594 11.277344 31.101562 Z M -33.675781 -21.6875 C -32.765625 -22.109375 -31.839844 -22.488281 -30.902344 -22.828125 L 15.234375 23.308594 C 14.898438 24.246094 14.515625 25.175781 14.097656 26.085938 Z M -51.300781 -4.0625 L -3.527344 43.710938 C -4.4375 44.128906 -5.367188 44.511719 -6.304688 44.851562 L -52.441406 -1.289062 C -52.101562 -2.226562 -51.722656 -3.152344 -51.300781 -4.0625 Z M -53.375 1.695312 L -9.285156 45.785156 C -10.347656 46.070312 -11.421875 46.300781 -12.5 46.488281 L -54.078125 4.90625 C -53.894531 3.828125 -53.660156 2.753906 -53.375 1.695312 Z M -27.921875 -23.761719 C -26.855469 -24.046875 -25.785156 -24.28125 -24.707031 -24.464844 L 16.875 17.113281 C 16.6875 18.195312 16.453125 19.265625 16.171875 20.328125 Z M -54.5 8.402344 L -15.992188 46.910156 C -17.269531 47.003906 -18.554688 47.027344 -19.835938 46.984375 L -54.574219 12.242188 C -54.617188 10.964844 -54.59375 9.679688 -54.5 8.402344 Z M -21.210938 -24.886719 C -19.933594 -24.980469 -18.648438 -25.003906 -17.371094 -24.960938 L 17.371094 9.777344 C 17.414062 11.058594 17.390625 12.34375 17.296875 13.621094 Z M -13.046875 -24.554688 C -11.328125 -24.285156 -9.628906 -23.894531 -7.957031 -23.382812 L 15.789062 0.367188 C 16.304688 2.039062 16.695312 3.738281 16.960938 5.453125 Z M -54.167969 16.566406 L -24.160156 46.574219 C -25.875 46.308594 -27.574219 45.917969 -29.246094 45.402344 L -52.996094 21.65625 C -53.511719 19.984375 -53.902344 18.285156 -54.167969 16.566406 Z M -50.089844 28.476562 L -36.070312 42.496094 C -38.933594 40.90625 -41.628906 38.898438 -44.058594 36.46875 C -46.488281 34.035156 -48.5 31.34375 -50.089844 28.476562 Z M -1.136719 -20.476562 C 1.730469 -18.886719 4.421875 -16.875 6.855469 -14.445312 C 9.285156 -12.015625 11.292969 -9.320312 12.882812 -6.457031 Z M -1.136719 -20.476562 " fill-opacity="1" fill-rule="evenodd"/></g></g></g></svg>