<svg xmlns="http://www.w3.org/2000/svg" xmlns:xlink="http://www.w3.org/1999/xlink" width="200" zoomAndPan="magnify" viewBox="0 0 150 37.5" height="50" preserveAspectRatio="xMidYMid meet" version="1.0"><defs><clipPath id="id1"><path d="M 140 15 L 149.011719 15 L 149.011719 24 L 140 24 Z M 140 15 " clip-rule="nonzero"/></clipPath></defs><path fill="#ffffff" d="M 17.597656 27.707031 C 17.023438 27.914062 16.082031 28.015625 15.507812 27.707031 C 14.914062 27.378906 15.140625 26.480469 15.261719 25.945312 C 15.507812 24.839844 15.9375 23.753906 16.367188 22.6875 C 16.617188 22.136719 16.839844 21.5625 17.085938 20.988281 C 17.148438 20.867188 17.679688 19.535156 17.660156 19.535156 C 17.621094 19.535156 17.558594 19.59375 17.515625 19.679688 C 18.234375 18.183594 19.441406 16.523438 19.113281 14.742188 C 18.96875 13.984375 18.4375 13.226562 17.597656 13.246094 C 16.882812 13.246094 16.226562 13.78125 15.734375 14.230469 C 14.8125 15.046875 14.054688 16.011719 13.335938 16.996094 C 13.257812 17.097656 12.929688 17.589844 12.558594 18.164062 C 12.742188 17.855469 12.988281 17.566406 13.195312 17.28125 C 12.332031 18.488281 11.578125 19.761719 10.839844 21.03125 C 11.410156 19.105469 12.355469 17.324219 13.152344 15.5 C 13.460938 14.824219 13.972656 14.210938 14.257812 13.511719 C 14.566406 12.753906 14.382812 11.792969 13.871094 11.15625 C 12.742188 9.785156 11.125 12.160156 10.449219 12.878906 C 9.078125 14.332031 7.929688 16.050781 6.863281 17.710938 C 7.007812 17.261719 7.089844 16.832031 7.253906 16.378906 C 7.460938 15.808594 7.683594 15.253906 7.867188 14.679688 C 8.074219 14.085938 8.257812 13.472656 8.441406 12.878906 C 8.628906 12.285156 8.832031 11.484375 8.6875 10.851562 C 8.585938 10.398438 8.402344 9.765625 8.074219 9.414062 C 7.5625 8.863281 6.84375 8.902344 6.1875 9.109375 C 5.59375 9.292969 5.082031 9.578125 4.613281 9.96875 C 4.367188 10.195312 4.140625 10.417969 3.914062 10.664062 L 3.710938 10.953125 C 3.589844 11.117188 3.609375 11.28125 3.546875 11.421875 C 3.339844 11.875 2.996094 12.222656 2.851562 12.714844 C 2.707031 13.265625 2.664062 14.042969 2.996094 14.535156 C 3.15625 14.761719 3.425781 14.925781 3.667969 14.722656 C 3.8125 14.578125 3.75 14.433594 3.769531 14.269531 C 3.792969 14.148438 3.851562 13.820312 3.9375 13.613281 C 4.304688 12.609375 4.855469 11.605469 5.59375 10.828125 C 5.902344 10.480469 6.269531 10.152344 6.722656 10.03125 C 7.335938 9.886719 7.355469 10.378906 7.273438 10.871094 L 7.152344 11.628906 L 7.152344 11.421875 C 6.558594 13.636719 5.410156 15.683594 4.632812 17.816406 C 4.242188 18.859375 3.792969 19.84375 3.363281 20.867188 C 2.933594 21.890625 2.441406 23.097656 2.378906 24.226562 C 2.359375 24.613281 2.441406 25.003906 2.746094 25.25 C 3.097656 25.535156 3.628906 25.558594 3.894531 25.1875 C 4.101562 24.902344 4.203125 24.390625 4.324219 24.0625 C 4.53125 23.527344 4.714844 22.996094 4.941406 22.484375 C 5.144531 21.929688 5.492188 21.441406 5.800781 20.929688 C 6.457031 19.863281 7.109375 18.796875 7.808594 17.753906 C 8.460938 16.75 9.117188 15.765625 9.835938 14.824219 C 10.554688 13.902344 11.269531 12.960938 12.210938 12.261719 C 12.355469 12.160156 12.847656 11.773438 13.050781 11.851562 C 13.214844 11.914062 13.050781 12.222656 12.988281 12.386719 C 12.640625 13.328125 12.191406 14.292969 11.679688 15.152344 C 10.492188 17.160156 9.261719 19.410156 8.808594 21.726562 C 8.648438 22.503906 8.648438 23.285156 9.261719 23.878906 C 9.894531 24.472656 10.121094 23.960938 10.328125 23.386719 C 10.492188 22.914062 10.839844 22.503906 11.085938 22.074219 C 11.433594 21.5 11.761719 20.90625 12.128906 20.3125 C 12.355469 19.984375 12.519531 19.535156 12.785156 19.289062 C 13.214844 18.859375 13.523438 18.367188 13.871094 17.875 C 14.589844 16.851562 15.304688 15.867188 16.226562 15.027344 C 16.449219 14.824219 16.964844 14.292969 17.3125 14.371094 C 17.742188 14.476562 17.269531 15.152344 17.292969 15.417969 L 17.433594 15.128906 C 17.3125 15.5 17.1875 15.847656 17.046875 16.195312 C 17.023438 16.175781 17.109375 15.929688 17.109375 15.929688 C 17.023438 15.910156 16.59375 16.890625 16.535156 16.996094 C 16.226562 17.628906 15.855469 18.265625 15.632812 18.941406 C 15.40625 19.554688 15.183594 20.128906 14.914062 20.722656 L 14.464844 21.746094 C 14.382812 21.972656 14.136719 22.464844 14.199219 22.710938 C 14.21875 22.710938 14.238281 22.710938 14.238281 22.6875 L 14.136719 23.058594 C 14.15625 22.976562 14.179688 22.792969 14.179688 22.773438 C 14.097656 22.832031 14.074219 23.242188 14.074219 23.242188 C 13.585938 24.964844 13.378906 26.785156 14.566406 28.324219 C 15.140625 29.058594 15.816406 29.386719 16.71875 29.140625 C 17.148438 29.039062 17.558594 28.835938 17.90625 28.546875 C 18.109375 28.363281 18.746094 27.808594 18.664062 27.484375 C 18.601562 27.152344 17.804688 27.644531 17.597656 27.707031 Z M 14.875 21.5625 C 15.058594 21.195312 15.222656 20.804688 15.386719 20.414062 C 15.507812 20.109375 15.589844 19.554688 15.796875 19.308594 C 15.855469 19.332031 15.855469 19.390625 15.796875 19.515625 C 15.652344 20.253906 15.242188 21.070312 14.914062 21.769531 C 14.648438 22.363281 14.382812 22.976562 14.179688 23.589844 C 14.382812 22.914062 14.546875 22.238281 14.875 21.5625 Z M 5.800781 15.4375 C 6.085938 14.761719 6.3125 14.042969 6.597656 13.371094 C 6.722656 13.082031 6.863281 12.753906 6.96875 12.425781 C 6.722656 13.390625 6.414062 14.351562 5.964844 15.273438 C 5.535156 16.15625 5.144531 17.054688 4.773438 17.976562 C 5.105469 17.117188 5.429688 16.277344 5.800781 15.4375 Z M 12.355469 18.46875 C 11.820312 19.332031 11.25 20.210938 11.25 20.210938 C 11.308594 20.230469 12.070312 18.960938 12.355469 18.46875 Z M 15.46875 14.554688 L 14.710938 15.355469 C 14.957031 15.070312 15.203125 14.804688 15.46875 14.554688 Z M 14.015625 24.246094 C 13.953125 24.226562 13.953125 24.183594 14.015625 24.101562 C 14.054688 24.121094 14.054688 24.164062 14.015625 24.246094 Z M 14.503906 15.601562 L 14.546875 15.539062 L 14.546875 15.558594 C 14.589844 15.480469 14.648438 15.417969 14.667969 15.398438 L 14.710938 15.355469 L 14.667969 15.417969 L 14.609375 15.480469 L 14.589844 15.5 C 14.589844 15.5 14.609375 15.5 14.609375 15.480469 L 14.589844 15.5 L 14.566406 15.539062 Z M 12.394531 18.410156 L 12.476562 18.285156 L 12.476562 18.304688 Z M 12.355469 18.46875 L 12.394531 18.410156 C 12.394531 18.429688 12.375 18.449219 12.355469 18.46875 Z M 14.648438 15.417969 L 14.667969 15.398438 C 14.667969 15.398438 14.667969 15.417969 14.648438 15.417969 Z M 14.648438 15.417969 " fill-opacity="1" fill-rule="nonzero"/><path fill="#ffffff" d="M 28.863281 19.144531 C 28.863281 19.144531 28.882812 19.164062 28.863281 19.125 C 28.761719 18.980469 28.617188 19.082031 28.472656 19.125 C 27.878906 19.25 27.265625 19.390625 26.652344 19.492188 C 26.875 18.757812 27.101562 17.976562 27.183594 17.21875 C 27.226562 16.933594 27.246094 16.625 27.183594 16.339844 C 27.144531 16.15625 27.082031 15.96875 26.980469 15.808594 C 26.980469 15.808594 26.734375 15.5 26.796875 15.664062 L 26.773438 15.644531 L 26.691406 15.480469 L 26.773438 15.558594 C 26.796875 15.4375 26.445312 15.214844 26.445312 15.214844 C 25.933594 14.699219 25.238281 14.3125 24.542969 14.699219 C 24.113281 14.945312 23.761719 15.355469 23.476562 15.765625 C 23.375 15.910156 23.273438 16.070312 23.191406 16.238281 C 23.109375 16.402344 22.984375 16.933594 22.863281 17.015625 C 22.761719 17.097656 22.453125 17.117188 22.308594 17.199219 C 22.105469 17.28125 21.917969 17.382812 21.757812 17.507812 C 21.367188 17.753906 21.058594 18.101562 20.773438 18.449219 C 20.28125 19.105469 20.035156 19.84375 19.6875 20.496094 C 19.03125 21.746094 19.75 23.386719 20.957031 23.980469 C 21.347656 24.164062 21.796875 24.246094 22.207031 24.203125 C 22.636719 24.144531 23.046875 23.917969 23.375 23.671875 C 23.683594 23.449219 24.355469 23.039062 24.480469 22.6875 C 24.480469 22.667969 24.4375 22.6875 24.378906 22.75 L 24.972656 22.054688 C 24.992188 22.074219 24.828125 22.28125 24.828125 22.28125 C 24.972656 22.339844 25.710938 21.253906 25.792969 21.171875 C 25.933594 20.929688 26.078125 20.660156 26.242188 20.414062 C 26.386719 20.230469 26.34375 20.253906 26.550781 20.167969 C 26.527344 20.191406 26.796875 20.109375 26.835938 20.109375 C 27.0625 20.066406 29.457031 19.902344 28.863281 19.144531 Z M 21.777344 23.285156 L 21.757812 23.285156 C 20.058594 23.527344 22.023438 19.925781 22.0625 19.71875 L 21.941406 19.902344 C 22.246094 19.289062 22.535156 18.796875 22.679688 18.632812 C 22.902344 19.65625 24.007812 20.046875 24.910156 20.167969 C 24.316406 21.359375 23.210938 23.015625 21.777344 23.285156 Z M 25.8125 17.609375 C 25.667969 18.183594 25.546875 18.941406 25.238281 19.453125 C 25.136719 19.65625 25.199219 19.59375 24.992188 19.636719 C 24.871094 19.679688 24.605469 19.636719 24.480469 19.617188 C 24.253906 19.59375 23.988281 19.554688 23.824219 19.410156 C 23.539062 19.164062 23.578125 18.777344 23.621094 18.429688 C 23.660156 18.078125 23.761719 17.753906 23.886719 17.425781 C 23.949219 17.300781 24.335938 16.644531 24.277344 16.523438 C 24.253906 16.460938 24.03125 16.832031 24.007812 16.851562 C 24.132812 16.625 24.253906 16.503906 24.355469 16.359375 C 24.335938 16.359375 24.355469 16.339844 24.378906 16.300781 L 24.378906 16.320312 L 24.398438 16.277344 C 24.398438 16.277344 24.398438 16.257812 24.417969 16.257812 C 24.726562 15.847656 25.484375 14.925781 25.894531 15.558594 C 26.203125 16.09375 25.914062 17.097656 25.8125 17.609375 Z M 24.398438 16.277344 L 24.417969 16.257812 C 24.417969 16.277344 24.398438 16.277344 24.398438 16.277344 Z M 24.398438 16.277344 " fill-opacity="1" fill-rule="nonzero"/><path fill="#ffffff" d="M 32.816406 19.207031 C 32.777344 18.941406 32.488281 19.023438 32.347656 19.125 C 32.160156 19.25 31.136719 20.597656 31.21875 20.703125 C 31.28125 20.703125 31.320312 20.703125 31.363281 20.660156 C 31.074219 21.007812 30.542969 21.398438 30.15625 21.707031 C 29.929688 21.890625 29.375 22.402344 29.046875 22.238281 C 28.351562 21.890625 29.765625 19.433594 29.703125 19.410156 C 29.640625 19.390625 29.128906 20.539062 29.027344 20.804688 C 29.273438 20.085938 29.601562 19.371094 29.988281 18.734375 C 29.96875 18.796875 29.910156 18.898438 29.949219 18.898438 C 29.988281 18.921875 30.296875 18.488281 30.238281 18.449219 C 30.214844 18.449219 30.175781 18.449219 30.15625 18.46875 C 30.214844 18.410156 30.320312 18.386719 30.320312 18.265625 C 30.320312 18.058594 29.847656 17.855469 29.683594 17.792969 C 29.292969 17.628906 28.90625 17.589844 28.597656 17.792969 C 28.1875 18.039062 28.105469 18.53125 27.941406 18.960938 C 27.902344 19.082031 27.511719 20.539062 27.59375 20.558594 C 27.636719 20.539062 27.636719 20.519531 27.65625 20.476562 L 27.59375 20.847656 C 27.574219 20.847656 27.613281 20.742188 27.574219 20.742188 C 27.410156 20.742188 27.449219 21.480469 27.46875 21.582031 C 27.550781 21.953125 27.839844 22.21875 28.066406 22.523438 C 28.1875 22.710938 28.3125 22.894531 28.496094 23.015625 C 28.742188 23.199219 28.578125 23.015625 28.742188 23.097656 L 28.699219 23.097656 C 28.679688 23.222656 29.457031 23.425781 29.621094 23.40625 C 30.339844 23.242188 30.851562 22.363281 31.261719 21.808594 C 31.648438 21.316406 31.976562 20.824219 32.324219 20.3125 C 32.53125 20.046875 32.898438 19.59375 32.816406 19.207031 Z M 29.234375 16.625 C 29.273438 16.6875 29.210938 16.769531 29.355469 16.851562 C 29.5 16.914062 29.582031 16.832031 29.703125 16.789062 C 29.949219 16.6875 30.132812 16.421875 30.320312 16.257812 C 30.378906 16.214844 30.257812 16.238281 30.257812 16.238281 C 30.523438 15.992188 30.296875 16.277344 30.542969 16.132812 C 30.789062 15.96875 30.832031 15.703125 31.035156 15.480469 C 30.789062 15.582031 30.605469 15.726562 30.441406 15.929688 C 30.238281 16.195312 30.09375 16.320312 29.867188 16.460938 C 30.113281 16.277344 30.238281 16.09375 30.441406 15.765625 C 30.5 15.703125 30.5625 15.664062 30.644531 15.621094 C 30.585938 15.558594 30.585938 15.5 30.667969 15.4375 C 30.730469 15.335938 30.851562 15.296875 30.910156 15.191406 C 31.015625 15.046875 30.992188 14.863281 31.117188 14.722656 C 31.21875 14.640625 31.363281 14.578125 31.445312 14.496094 C 31.628906 14.332031 31.835938 14.023438 31.753906 13.757812 C 31.671875 13.511719 31.464844 13.207031 31.242188 13.0625 C 30.972656 12.917969 30.605469 12.855469 30.320312 12.980469 C 30.257812 13 30.011719 13.0625 30.09375 13.144531 C 30.113281 13.183594 30.132812 13.183594 30.175781 13.183594 C 29.988281 13.328125 29.683594 13.574219 30.113281 13.738281 C 30.070312 13.78125 30.113281 13.960938 30.113281 13.984375 C 30.09375 14.125 29.804688 14.886719 29.621094 15.253906 L 29.867188 14.886719 C 29.726562 15.191406 29.558594 15.480469 29.375 15.726562 C 29.5 15.457031 29.253906 15.765625 29.253906 15.828125 C 29.027344 15.726562 29.089844 16.359375 29.109375 16.421875 C 29.109375 16.441406 29.234375 16.625 29.234375 16.625 Z M 28.84375 21.5 L 28.84375 21.519531 L 28.800781 21.644531 L 28.84375 21.480469 C 28.863281 21.460938 28.863281 21.460938 28.84375 21.5 Z M 29.519531 15.417969 C 29.519531 15.417969 29.558594 15.375 29.601562 15.296875 Z M 29.316406 15.808594 C 29.316406 15.828125 29.316406 15.828125 29.292969 15.847656 C 29.292969 15.847656 29.292969 15.828125 29.273438 15.828125 C 29.292969 15.828125 29.292969 15.828125 29.316406 15.808594 Z M 29.316406 15.808594 " fill-opacity="1" fill-rule="nonzero"/><path fill="#ffffff" d="M 43.429688 19.25 L 43.429688 19.226562 C 43.304688 18.550781 42.382812 19.679688 42.261719 19.78125 C 41.667969 20.4375 41.113281 21.152344 40.582031 21.871094 C 40.046875 22.605469 39.535156 23.34375 38.980469 24.082031 C 38.71875 24.449219 38.449219 24.800781 38.144531 25.125 C 38.039062 25.25 37.796875 25.597656 37.609375 25.597656 C 36.894531 25.597656 37.445312 22.710938 37.527344 22.257812 C 37.652344 21.460938 37.714844 20.394531 38.226562 19.761719 C 38.347656 19.59375 39.742188 17.816406 39.742188 17.816406 C 39.699219 17.792969 39.535156 18 39.433594 18.121094 L 40.316406 16.933594 L 40.375 16.851562 L 40.394531 16.851562 L 40.375 16.851562 L 40.539062 16.625 C 40.558594 16.644531 40.539062 16.6875 40.519531 16.730469 L 40.703125 16.523438 L 41.238281 15.828125 C 41.625 15.273438 41.992188 14.679688 42.34375 14.105469 C 42.894531 13.164062 43.652344 11.8125 43.246094 10.664062 C 42.9375 9.824219 41.808594 9.660156 41.050781 9.949219 C 40.5 10.152344 40.027344 10.582031 39.636719 11.035156 C 39.433594 11.300781 39.230469 11.585938 39.042969 11.894531 C 38.980469 11.976562 38.71875 12.632812 38.65625 12.714844 L 38.675781 12.714844 C 38.550781 12.9375 38.429688 13.164062 38.347656 13.390625 C 38.390625 13.226562 38.492188 12.898438 38.574219 12.835938 C 38.410156 12.960938 38.265625 13.554688 38.226562 13.613281 C 37.445312 15.316406 36.769531 17.035156 36.28125 18.839844 C 35.726562 18.203125 34.84375 17.117188 33.882812 17.507812 C 33.082031 17.835938 32.488281 18.675781 32.082031 19.410156 C 31.710938 20.066406 31.609375 20.742188 31.34375 21.378906 C 30.871094 22.464844 30.648438 24.695312 32.242188 25.023438 C 32.734375 25.125 33.1875 24.820312 33.574219 24.554688 C 34.273438 24.039062 34.925781 23.449219 35.542969 22.832031 C 35.4375 23.917969 35.214844 25.558594 36.09375 26.417969 C 37.179688 27.523438 38.265625 26.027344 38.921875 25.207031 C 39.761719 24.144531 40.417969 22.957031 41.257812 21.929688 C 41.667969 21.441406 42.074219 20.949219 42.503906 20.496094 C 42.835938 20.167969 43.488281 19.761719 43.429688 19.25 Z M 35.890625 20.597656 C 35.871094 20.660156 35.871094 20.703125 35.871094 20.703125 C 35.789062 21.195312 35.789062 21.625 35.4375 21.972656 C 35.132812 22.300781 34.804688 22.605469 34.476562 22.914062 C 34.171875 23.199219 33.429688 24.039062 32.960938 24 C 32.386719 23.9375 32.816406 22.628906 33.105469 21.828125 C 32.796875 22.648438 32.304688 23.980469 32.980469 24.019531 C 33.167969 24.039062 33.472656 23.878906 33.738281 23.652344 C 33.492188 23.878906 33.082031 24.183594 32.835938 24.0625 C 32.367188 23.859375 32.777344 22.6875 32.859375 22.363281 C 33.125 21.417969 33.511719 20.519531 33.964844 19.65625 C 34.191406 19.226562 34.515625 18.53125 34.945312 18.488281 L 34.84375 18.550781 C 34.867188 18.53125 34.886719 18.53125 34.90625 18.53125 C 35.050781 18.488281 35.195312 18.589844 35.296875 18.675781 C 35.5625 18.859375 35.726562 19.207031 35.910156 19.472656 C 36.117188 19.800781 35.972656 20.148438 35.890625 20.519531 Z M 39.1875 15.867188 C 39.1875 15.847656 39.1875 15.808594 39.210938 15.785156 L 39.210938 15.765625 C 39.230469 15.703125 39.25 15.683594 39.25 15.683594 L 39.25 15.664062 C 39.722656 14.351562 40.234375 13.039062 40.96875 11.851562 C 41.15625 11.546875 41.6875 10.605469 42.15625 10.871094 C 42.34375 10.972656 42.382812 11.238281 42.382812 11.421875 C 42.464844 12.652344 41.480469 14.105469 40.867188 15.089844 C 40.152344 16.238281 39.351562 17.363281 38.511719 18.410156 L 38.960938 17.9375 L 39.371094 17.425781 L 38.328125 18.777344 L 38.183594 18.960938 L 38.101562 19.042969 C 38.121094 18.921875 38.226562 18.796875 38.328125 18.652344 C 38.285156 18.695312 38.246094 18.734375 38.226562 18.777344 C 38.492188 17.894531 38.777344 17.015625 39.085938 16.132812 C 39.066406 16.15625 39.085938 16.113281 39.105469 16.03125 L 39.167969 15.929688 C 39.167969 15.910156 39.167969 15.890625 39.1875 15.867188 Z M 37.464844 17.546875 C 37.425781 17.648438 37.304688 18.121094 37.242188 18.183594 C 37.242188 18.203125 37.222656 18.222656 37.203125 18.222656 C 37.363281 18.019531 37.261719 17.753906 37.34375 17.507812 C 37.386719 17.382812 37.589844 17.160156 37.632812 16.996094 C 37.632812 17.160156 37.527344 17.445312 37.464844 17.546875 Z M 34.210938 23.222656 C 34.722656 22.773438 35.214844 22.300781 35.6875 21.808594 C 35.644531 22.074219 35.007812 22.523438 34.785156 22.730469 C 34.515625 22.996094 34.210938 23.261719 33.902344 23.507812 L 33.882812 23.507812 Z M 37.835938 15.683594 C 37.753906 15.929688 37.652344 16.15625 37.527344 16.378906 C 37.632812 16.070312 37.691406 15.765625 37.835938 15.480469 C 37.957031 15.253906 38.101562 14.964844 38.207031 14.699219 C 38.101562 15.027344 37.9375 15.375 37.835938 15.683594 Z M 39.167969 15.929688 L 39.085938 16.132812 C 39.085938 16.113281 39.105469 16.070312 39.105469 16.03125 Z M 34.742188 18.632812 C 34.660156 18.695312 34.601562 18.777344 34.578125 18.777344 C 34.621094 18.777344 34.683594 18.695312 34.742188 18.632812 Z M 35.316406 18.589844 C 35.355469 18.613281 35.398438 18.632812 35.4375 18.675781 Z M 39.371094 18.222656 C 39.371094 18.203125 39.390625 18.183594 39.414062 18.164062 C 39.390625 18.203125 39.371094 18.222656 39.371094 18.222656 Z M 39.414062 18.164062 L 39.433594 18.121094 C 39.433594 18.140625 39.414062 18.164062 39.414062 18.164062 Z M 39.414062 18.164062 " fill-opacity="1" fill-rule="nonzero"/><path fill="#ffffff" d="M 51.621094 19.25 C 51.558594 18.859375 50.617188 19.945312 50.578125 19.984375 C 49.984375 20.621094 49.410156 21.316406 48.710938 21.871094 C 48.386719 22.113281 48.242188 22.257812 48.261719 21.769531 C 48.28125 21.339844 48.445312 20.886719 48.570312 20.496094 C 48.628906 20.292969 49.039062 19.515625 48.917969 19.371094 C 48.898438 19.351562 48.855469 19.410156 48.816406 19.453125 C 49.101562 18.878906 49.796875 17.894531 48.875 17.628906 C 47.832031 17.34375 47.300781 18.46875 46.847656 19.144531 C 46.417969 19.761719 46.007812 20.355469 45.515625 20.90625 C 45.148438 21.339844 44.574219 22.15625 43.980469 22.320312 C 43.429688 22.503906 43.796875 21.601562 43.878906 21.296875 C 43.941406 21.132812 44.675781 19.226562 44.71875 19.25 C 44.675781 19.25 44.636719 19.269531 44.59375 19.332031 C 44.820312 18.839844 45.066406 18.347656 45.332031 17.875 C 45.269531 18 45.210938 18.203125 45.210938 18.203125 C 45.3125 18.222656 45.804688 17.21875 45.761719 17.21875 C 45.722656 17.242188 45.679688 17.28125 45.640625 17.34375 C 45.804688 17.054688 46.007812 16.914062 45.640625 16.625 C 45.269531 16.339844 44.613281 16.277344 44.246094 16.605469 C 43.796875 16.972656 43.507812 17.628906 43.285156 18.140625 C 43.140625 18.429688 42.894531 18.589844 42.75 18.921875 C 42.464844 19.554688 42.300781 20.191406 42.136719 20.847656 C 41.972656 21.480469 41.871094 22.136719 41.972656 22.792969 C 42.035156 23.078125 42.136719 23.40625 42.363281 23.609375 C 42.425781 23.652344 43.019531 23.878906 42.976562 23.734375 C 42.9375 23.734375 42.894531 23.734375 42.875 23.714844 C 43.097656 23.714844 43.324219 23.609375 43.53125 23.488281 C 43.550781 23.507812 43.367188 23.589844 43.367188 23.609375 C 43.570312 23.878906 45.128906 22.300781 45.269531 22.113281 C 45.78125 21.460938 46.296875 20.824219 46.828125 20.191406 C 46.5625 20.90625 46.109375 21.890625 46.539062 22.667969 C 46.785156 23.078125 47.257812 23.304688 47.707031 23.261719 C 48.671875 23.199219 49.53125 22.15625 50.125 21.519531 C 50.515625 21.089844 50.90625 20.640625 51.191406 20.148438 C 51.3125 19.945312 51.640625 19.492188 51.621094 19.25 Z M 48.507812 19.65625 C 48.46875 19.78125 48.445312 19.945312 48.386719 20.046875 C 48.386719 20.066406 48.363281 20.085938 48.34375 20.109375 C 48.363281 20.085938 48.363281 20.066406 48.363281 20.046875 C 48.199219 19.535156 48.816406 18.878906 49.019531 18.367188 C 48.855469 18.820312 48.648438 19.226562 48.507812 19.65625 Z M 43.632812 22.300781 C 43.507812 21.707031 43.941406 20.886719 44.164062 20.335938 C 43.878906 21.132812 43.589844 22.113281 43.632812 22.300781 Z M 46.828125 20.292969 C 46.828125 20.210938 46.847656 20.148438 46.910156 20.109375 C 46.871094 20.167969 46.847656 20.230469 46.828125 20.292969 Z M 46.828125 20.292969 " fill-opacity="1" fill-rule="nonzero"/><path fill="#ffffff" d="M 58.320312 19.023438 C 58.03125 19.332031 57.847656 19.84375 57.621094 20.210938 C 57.273438 20.804688 56.925781 21.378906 56.558594 21.953125 C 55.859375 23.058594 55.164062 24.183594 54.324219 25.1875 C 53.976562 25.617188 53.238281 26.664062 52.542969 26.582031 C 52.03125 26.5 52.03125 25.617188 52.03125 25.230469 C 52.03125 24.902344 52.050781 24.574219 52.089844 24.265625 C 52.113281 24.082031 52.277344 23.46875 52.171875 23.304688 L 52.007812 23.917969 C 52.03125 23.671875 52.070312 23.40625 52.132812 23.160156 C 52.113281 23.117188 52.296875 22.546875 52.339844 22.363281 C 52.441406 21.953125 52.542969 21.542969 52.664062 21.132812 C 52.769531 20.722656 52.871094 20.335938 52.992188 19.945312 C 53.09375 19.574219 53.238281 19.390625 53.464844 19.105469 C 54.386719 17.957031 55.226562 16.707031 56.003906 15.457031 C 56.292969 14.988281 56.476562 14.578125 56.824219 14.1875 C 57.335938 13.65625 57.683594 12.855469 58.011719 12.203125 C 58.5625 11.136719 59.300781 9.660156 59.179688 8.410156 L 59.179688 8.308594 L 59.15625 8.289062 C 59.035156 7.488281 58.300781 6.546875 57.398438 6.835938 C 56.925781 6.976562 56.578125 7.46875 56.292969 7.816406 L 55.820312 8.453125 C 55.71875 8.574219 55.574219 8.882812 55.472656 9.046875 L 55.492188 9.027344 L 54.835938 10.152344 L 55 9.804688 C 54.898438 9.785156 54.449219 10.664062 54.386719 10.769531 C 54.160156 11.15625 53.957031 11.546875 53.773438 11.933594 C 53.363281 12.753906 52.953125 13.59375 52.6875 14.476562 C 52.398438 15.355469 52.070312 16.214844 51.765625 17.097656 C 51.597656 17.566406 51.4375 18.058594 51.292969 18.53125 C 51.171875 18.921875 50.882812 19.554688 50.945312 19.964844 L 51.003906 19.964844 C 50.945312 20.109375 50.902344 20.253906 50.863281 20.394531 C 50.882812 20.273438 50.882812 20.128906 50.902344 20.085938 C 50.800781 20.230469 50.820312 20.722656 50.800781 20.765625 C 50.535156 21.871094 50.226562 22.976562 50.144531 24.121094 C 50.082031 25.207031 50.082031 26.640625 50.945312 27.441406 C 51.90625 28.324219 53.011719 27.726562 53.8125 26.96875 C 54.753906 26.046875 55.554688 24.964844 56.292969 23.898438 C 56.96875 22.914062 57.5 21.871094 58.113281 20.886719 C 58.359375 20.476562 58.625 20.066406 58.75 19.617188 C 58.832031 19.289062 58.789062 18.53125 58.320312 19.023438 Z M 55.757812 11.691406 C 56.167969 10.707031 56.578125 9.703125 57.152344 8.78125 C 57.296875 8.554688 58.214844 7.328125 58.175781 8.410156 L 58.175781 8.433594 C 58.132812 9.578125 57.398438 10.789062 56.90625 11.773438 L 56.042969 13.371094 C 55.757812 13.859375 55.265625 14.476562 55.101562 15.007812 C 55.226562 14.679688 55.59375 14.210938 55.78125 13.902344 C 56.085938 13.390625 56.351562 12.878906 56.636719 12.367188 C 57.109375 11.464844 57.621094 10.519531 57.96875 9.539062 C 57.046875 12.285156 55.328125 14.84375 53.8125 17.28125 C 54.40625 15.480469 55 13.511719 55.757812 11.691406 Z M 55.101562 10.257812 C 55.308594 9.867188 55.675781 9.539062 55.882812 9.171875 C 55.449219 10.03125 54.917969 10.808594 54.46875 11.628906 C 54.46875 11.605469 54.46875 11.566406 54.488281 11.546875 C 54.671875 11.09375 54.878906 10.6875 55.101562 10.257812 Z M 51.230469 20.847656 C 51.210938 20.886719 51.210938 20.90625 51.210938 20.90625 C 50.964844 21.480469 50.945312 22.257812 50.820312 22.875 C 50.800781 23.015625 50.761719 23.140625 50.761719 23.285156 L 50.761719 23.222656 L 50.699219 23.878906 C 50.742188 23.140625 50.820312 22.382812 50.964844 21.664062 L 50.964844 21.683594 C 51.027344 21.214844 51.128906 20.785156 51.210938 20.785156 C 51.253906 20.765625 51.253906 20.824219 51.230469 20.847656 Z M 51.230469 20.847656 " fill-opacity="1" fill-rule="nonzero"/><path fill="#ffffff" d="M 75.953125 10.335938 C 75.730469 9.867188 75.21875 9.414062 74.707031 9.355469 C 74.195312 9.273438 74.253906 9.539062 74.113281 9.867188 L 72.617188 13.226562 L 71.777344 15.191406 C 71.59375 15.621094 71.265625 16.832031 70.894531 16.996094 C 70.628906 17.097656 70.160156 17.035156 69.871094 17.054688 L 68.929688 17.117188 C 68.375 17.179688 67.882812 17.363281 67.332031 17.363281 C 67.496094 17.054688 67.617188 16.730469 67.742188 16.402344 C 67.925781 15.96875 67.925781 15.558594 68.128906 15.128906 C 68.457031 14.414062 68.722656 13.675781 69.09375 12.980469 C 69.296875 12.570312 69.480469 12.140625 69.667969 11.730469 C 69.828125 11.402344 69.871094 11.035156 69.996094 10.769531 C 70.136719 10.519531 70.382812 10.296875 70.484375 10.050781 C 70.648438 9.578125 70.179688 9.230469 69.769531 9.085938 C 69.460938 8.964844 69.050781 8.902344 68.847656 9.191406 C 68.886719 9.171875 68.804688 9.457031 68.804688 9.414062 C 68.746094 9.558594 68.664062 9.703125 68.582031 9.824219 C 67.699219 11.503906 67.023438 13.265625 66.304688 15.027344 C 66.101562 15.558594 65.875 16.09375 65.671875 16.644531 C 65.570312 16.890625 65.46875 17.160156 65.34375 17.40625 C 65.179688 17.734375 65.058594 17.628906 64.6875 17.734375 C 64.527344 17.773438 64.195312 17.835938 64.117188 18.019531 C 63.929688 18.429688 64.546875 18.714844 64.832031 18.796875 C 64.359375 20.355469 63.785156 21.871094 63.355469 23.449219 C 63.253906 23.835938 63.050781 24.308594 63.132812 24.738281 C 63.195312 25.1875 63.871094 25.925781 64.382812 25.824219 C 64.871094 25.71875 64.894531 24.777344 65.015625 24.371094 C 65.199219 23.671875 65.425781 22.976562 65.652344 22.28125 C 65.835938 21.664062 66.101562 21.050781 66.226562 20.414062 L 66.367188 19.84375 C 66.472656 19.554688 66.574219 19.042969 66.757812 18.820312 C 67.003906 18.53125 67.78125 18.46875 68.191406 18.429688 C 68.621094 18.367188 69.050781 18.304688 69.480469 18.265625 C 69.890625 18.246094 70.199219 18.078125 70.570312 18.019531 C 70.054688 19.164062 69.707031 20.394531 69.214844 21.542969 C 68.867188 22.363281 68.539062 23.179688 68.253906 24.039062 C 68.027344 24.738281 67.742188 25.476562 67.597656 26.191406 C 67.515625 26.621094 67.699219 27.011719 68.089844 27.257812 C 68.992188 27.808594 69.234375 26.992188 69.480469 26.292969 C 69.933594 24.984375 70.464844 23.691406 70.957031 22.402344 C 71.183594 21.769531 71.304688 21.195312 71.59375 20.578125 L 72.269531 18.941406 C 72.429688 18.570312 72.679688 17.855469 73.027344 17.671875 C 73.25 17.566406 73.375 17.527344 73.539062 17.484375 C 73.84375 17.40625 74.195312 17.445312 74.519531 17.363281 C 74.644531 17.34375 75.035156 17.28125 75.09375 17.074219 C 75.136719 16.890625 75.011719 16.871094 74.890625 16.832031 C 74.828125 16.8125 74.789062 16.933594 74.789062 16.933594 C 74.707031 16.953125 74.625 16.914062 74.542969 16.933594 C 74.132812 16.972656 73.640625 16.890625 73.230469 16.890625 C 73.375 16.300781 73.703125 15.765625 73.988281 15.191406 L 74.972656 13.246094 L 75.464844 12.304688 C 75.585938 12.035156 75.609375 11.792969 75.6875 11.566406 C 75.871094 11.15625 76.222656 10.910156 75.953125 10.335938 Z M 67.023438 16.769531 C 66.714844 17.484375 66.429688 18.203125 66.164062 18.921875 C 66.472656 18 66.757812 17.117188 67.105469 16.195312 C 67.453125 15.273438 68.027344 14.433594 68.4375 13.554688 Z M 69.460938 25.023438 C 69.398438 25.148438 69.339844 25.25 69.296875 25.375 C 69.339844 25.148438 69.339844 24.921875 69.421875 24.695312 C 69.480469 24.449219 69.707031 24.246094 69.828125 24.019531 C 69.726562 24.371094 69.644531 24.695312 69.460938 25.023438 Z M 68.519531 13.371094 L 68.480469 13.472656 C 68.480469 13.429688 68.5 13.410156 68.519531 13.371094 Z M 68.519531 13.371094 " fill-opacity="1" fill-rule="nonzero"/><path fill="#ffffff" d="M 84.351562 19.308594 C 84.332031 18.859375 83.964844 19.25 83.839844 19.410156 C 83.574219 19.800781 83.328125 20.210938 83.082031 20.597656 C 82.527344 21.441406 81.976562 22.28125 81.34375 23.078125 C 79.234375 25.679688 80.707031 21.050781 80.542969 21.089844 C 80.460938 21.109375 80.398438 21.417969 80.378906 21.480469 C 80.542969 20.742188 80.851562 19.863281 81.238281 19.144531 C 81.464844 18.695312 81.730469 18.328125 81.320312 17.835938 C 80.5625 16.914062 79.683594 17.753906 79.191406 18.386719 C 78.984375 17.609375 78.578125 16.460938 77.574219 16.460938 C 77.121094 16.460938 76.855469 16.6875 76.546875 16.953125 C 76.363281 17.074219 76.222656 17.097656 76.058594 17.242188 C 75.789062 17.425781 75.605469 17.710938 75.421875 17.957031 C 74.726562 18.980469 74.234375 20.273438 74.007812 21.460938 C 73.90625 22.035156 73.863281 22.667969 74.027344 23.242188 C 74.132812 23.570312 74.5 24.308594 74.972656 24.246094 C 74.992188 24.246094 74.949219 24.226562 74.890625 24.183594 C 75.175781 24.265625 75.503906 24.226562 75.75 24.0625 C 75.769531 24.101562 75.523438 24.203125 75.523438 24.203125 C 75.75 24.554688 77.429688 22.523438 77.550781 22.339844 C 77.820312 21.972656 78.003906 21.582031 78.25 21.195312 C 78.433594 20.90625 78.71875 20.539062 78.925781 20.230469 C 78.902344 20.375 78.902344 20.558594 78.902344 20.558594 C 78.535156 21.726562 78.1875 22.996094 78.679688 24.203125 C 78.902344 24.820312 79.457031 25.394531 80.152344 25.269531 C 80.769531 25.167969 81.28125 24.574219 81.648438 24.101562 C 82.101562 23.570312 82.488281 22.976562 82.878906 22.363281 C 83.207031 21.808594 83.511719 21.253906 83.78125 20.640625 C 83.941406 20.253906 84.394531 19.78125 84.351562 19.308594 Z M 78.472656 19.453125 C 78.371094 19.59375 78.269531 19.738281 78.1875 19.882812 L 77.65625 20.640625 C 77.308594 21.152344 76.9375 21.644531 76.546875 22.113281 C 76.445312 22.257812 75.953125 22.894531 75.75 22.832031 C 75.441406 22.730469 75.769531 21.664062 75.8125 21.5 C 75.871094 21.214844 76.957031 18.058594 77.246094 18 C 76.875 17.976562 75.6875 21.683594 75.628906 21.992188 C 75.789062 20.988281 76.160156 20.003906 76.570312 19.082031 C 76.792969 18.613281 77.308594 17.363281 77.980469 17.363281 C 78.351562 17.363281 78.433594 18.121094 78.492188 18.367188 C 78.472656 18.328125 78.289062 17.734375 78.269531 17.753906 C 78.167969 17.835938 78.578125 18.960938 78.578125 19.125 C 78.578125 19.289062 78.578125 19.289062 78.472656 19.453125 Z M 78.945312 20.457031 C 78.945312 20.457031 79.007812 20.167969 79.027344 20.109375 L 79.128906 19.964844 Z M 78.636719 19.1875 L 78.636719 18.980469 C 78.699219 19.0625 78.699219 19.125 78.636719 19.1875 Z M 78.636719 19.1875 " fill-opacity="1" fill-rule="nonzero"/><path fill="#ffffff" d="M 90.988281 19.433594 C 90.929688 19.144531 90.765625 19.105469 90.558594 19.1875 C 90.171875 19.371094 89.78125 19.78125 89.410156 20.027344 C 88.570312 20.558594 87.734375 20.988281 86.832031 21.441406 C 86.832031 21.417969 86.8125 21.378906 86.789062 21.316406 C 86.8125 21.417969 86.789062 21.460938 86.769531 21.480469 C 86.5625 20.597656 86.359375 19.71875 86.195312 18.820312 C 86.277344 19.207031 86.460938 19.863281 86.605469 20.414062 C 86.421875 19.554688 86.195312 18.488281 86.21875 18.488281 C 86.175781 18.511719 86.175781 18.550781 86.175781 18.589844 C 86.136719 18.347656 86.074219 18.039062 86.113281 17.773438 C 86.136719 17.464844 86.300781 17.199219 86.402344 16.914062 C 86.378906 17.054688 86.339844 17.242188 86.339844 17.242188 C 86.460938 17.261719 86.542969 16.503906 86.542969 16.421875 C 86.523438 16.300781 86.257812 15.910156 86.257812 16.011719 C 85.707031 15.5 84.617188 16.625 84.453125 17.117188 C 84.332031 17.445312 84.332031 17.792969 84.351562 18.140625 C 84.371094 18.488281 84.476562 18.796875 84.578125 19.125 C 84.640625 19.371094 84.558594 19.535156 84.578125 19.800781 C 84.617188 20.210938 84.761719 20.621094 84.84375 21.007812 C 84.925781 21.316406 85.191406 21.929688 85.132812 22.21875 C 85.089844 22.503906 84.476562 22.75 84.210938 22.914062 C 83.859375 23.140625 83.511719 23.40625 83.164062 23.671875 C 82.550781 24.144531 81.894531 24.738281 81.648438 25.496094 C 81.609375 25.597656 81.464844 26.046875 81.609375 26.128906 C 81.628906 26.148438 81.691406 25.804688 81.710938 25.761719 C 81.441406 27.113281 82.777344 27.769531 84.023438 27.789062 C 85.4375 27.832031 86.421875 27.011719 86.914062 25.742188 C 87.117188 25.1875 87.179688 24.613281 87.160156 24.039062 C 87.160156 23.652344 87.117188 23.285156 87.054688 22.914062 C 87.015625 22.585938 86.972656 22.605469 87.199219 22.421875 C 87.363281 22.300781 87.609375 22.21875 87.773438 22.136719 C 88.429688 21.789062 89.023438 21.378906 89.617188 20.949219 C 90.046875 20.640625 91.070312 20.109375 90.988281 19.453125 Z M 82.714844 26.480469 C 82.183594 26.316406 82.714844 25.476562 82.898438 25.207031 C 83.207031 24.800781 83.65625 24.492188 84.066406 24.203125 L 84.679688 23.796875 C 84.742188 23.753906 85.132812 23.449219 85.007812 23.488281 L 85.253906 23.34375 L 85.109375 23.46875 C 85.152344 23.449219 85.214844 23.425781 85.253906 23.386719 C 85.273438 23.878906 85.273438 24.371094 85.132812 24.859375 C 85.109375 24.941406 84.722656 25.761719 84.558594 25.925781 L 84.660156 25.84375 C 84.476562 26.070312 84.269531 26.253906 84.023438 26.398438 C 84.023438 26.378906 84.210938 26.253906 84.1875 26.234375 L 83.617188 26.457031 C 83.328125 26.519531 83 26.582031 82.714844 26.480469 Z M 85.296875 27.074219 C 84.761719 27.296875 84.25 27.402344 83.699219 27.421875 C 84.703125 27.359375 85.746094 26.867188 86.339844 26.027344 C 86.113281 26.480469 85.828125 26.828125 85.296875 27.074219 Z M 86.789062 21.253906 C 86.769531 21.109375 86.730469 20.90625 86.667969 20.683594 C 86.707031 20.90625 86.75 21.132812 86.789062 21.253906 Z M 87.054688 23.386719 C 87.035156 23.367188 87.035156 23.324219 87.035156 23.285156 C 87.035156 23.324219 87.054688 23.367188 87.054688 23.386719 Z M 87.054688 23.386719 " fill-opacity="1" fill-rule="nonzero"/><path fill="#ffffff" d="M 99.921875 19.308594 C 99.902344 18.859375 99.53125 19.25 99.410156 19.410156 C 99.140625 19.800781 98.898438 20.210938 98.648438 20.597656 C 98.097656 21.441406 97.542969 22.28125 96.910156 23.078125 C 94.800781 25.679688 96.273438 21.050781 96.109375 21.089844 C 96.027344 21.109375 95.96875 21.417969 95.945312 21.480469 C 96.109375 20.742188 96.417969 19.863281 96.808594 19.144531 C 97.03125 18.695312 97.296875 18.328125 96.890625 17.835938 C 96.128906 16.914062 95.25 17.753906 94.757812 18.386719 C 94.554688 17.609375 94.144531 16.460938 93.140625 16.460938 C 92.6875 16.460938 92.421875 16.6875 92.117188 16.953125 C 91.933594 17.074219 91.789062 17.097656 91.625 17.242188 C 91.359375 17.425781 91.171875 17.710938 90.988281 17.957031 C 90.292969 18.980469 89.800781 20.273438 89.574219 21.460938 C 89.472656 22.035156 89.433594 22.667969 89.597656 23.242188 C 89.699219 23.570312 90.066406 24.308594 90.539062 24.246094 C 90.558594 24.246094 90.519531 24.226562 90.457031 24.183594 C 90.742188 24.265625 91.070312 24.226562 91.316406 24.0625 C 91.339844 24.101562 91.089844 24.203125 91.089844 24.203125 C 91.316406 24.554688 92.996094 22.523438 93.117188 22.339844 C 93.386719 21.972656 93.570312 21.582031 93.816406 21.195312 C 94 20.90625 94.289062 20.539062 94.492188 20.230469 C 94.472656 20.375 94.472656 20.558594 94.472656 20.558594 C 94.101562 21.726562 93.753906 22.996094 94.246094 24.203125 C 94.472656 24.820312 95.023438 25.394531 95.71875 25.269531 C 96.335938 25.167969 96.847656 24.574219 97.214844 24.101562 C 97.667969 23.570312 98.054688 22.976562 98.445312 22.363281 C 98.773438 21.808594 99.082031 21.253906 99.347656 20.640625 C 99.511719 20.253906 99.960938 19.78125 99.921875 19.308594 Z M 94.042969 19.453125 C 93.9375 19.59375 93.835938 19.738281 93.753906 19.882812 L 93.222656 20.640625 C 92.875 21.152344 92.503906 21.644531 92.117188 22.113281 C 92.011719 22.257812 91.523438 22.894531 91.316406 22.832031 C 91.007812 22.730469 91.339844 21.664062 91.378906 21.5 C 91.441406 21.214844 92.527344 18.058594 92.8125 18 C 92.445312 17.976562 91.253906 21.683594 91.195312 21.992188 C 91.359375 20.988281 91.726562 20.003906 92.136719 19.082031 C 92.363281 18.613281 92.875 17.363281 93.550781 17.363281 C 93.917969 17.363281 94 18.121094 94.0625 18.367188 C 94.042969 18.328125 93.859375 17.734375 93.835938 17.753906 C 93.734375 17.835938 94.144531 18.960938 94.144531 19.125 C 94.144531 19.289062 94.144531 19.289062 94.042969 19.453125 Z M 94.511719 20.457031 C 94.511719 20.457031 94.574219 20.167969 94.59375 20.109375 L 94.695312 19.964844 Z M 94.203125 19.1875 L 94.203125 18.980469 C 94.265625 19.0625 94.265625 19.125 94.203125 19.1875 Z M 94.203125 19.1875 " fill-opacity="1" fill-rule="nonzero"/><path fill="#ffffff" d="M 106.90625 19.371094 C 106.800781 18.878906 106.515625 19.207031 106.394531 19.390625 C 106.105469 19.738281 105.65625 20.066406 105.308594 20.394531 C 104.835938 20.804688 104.363281 21.234375 103.875 21.625 C 103.628906 21.828125 103.320312 22.113281 103.011719 22.21875 C 102.972656 22.238281 102.828125 22.257812 102.828125 22.28125 L 102.808594 22.257812 C 102.808594 22.257812 102.789062 21.929688 102.808594 21.910156 C 102.828125 21.644531 102.910156 21.378906 102.992188 21.132812 C 103.011719 21.089844 103.238281 20.394531 103.195312 20.394531 L 103.09375 20.519531 C 103.21875 20.273438 103.382812 20.027344 103.523438 19.761719 C 103.195312 20.066406 102.972656 20.414062 102.808594 20.847656 C 102.726562 21.050781 102.5 21.417969 102.460938 21.726562 C 102.5 21.277344 102.808594 20.683594 102.953125 20.414062 C 103.15625 19.984375 103.382812 19.492188 103.648438 19.082031 C 104.140625 18.347656 105.203125 17.671875 104.878906 16.644531 C 104.589844 15.683594 103.832031 15.664062 103.238281 16.214844 C 102.953125 16.480469 100.515625 19.59375 100.574219 19.636719 C 100.574219 19.636719 100.78125 19.390625 101.046875 19.042969 L 99.839844 20.804688 C 99.816406 20.804688 100.042969 20.457031 100.023438 20.4375 C 100 20.414062 99.859375 20.558594 99.839844 20.640625 C 99.878906 20.210938 100.023438 19.78125 100.0625 19.351562 C 100.082031 19.1875 100.0625 19.0625 100.105469 18.898438 C 100.183594 18.632812 100.269531 18.347656 100.390625 18.121094 C 100.472656 17.957031 100.636719 17.816406 100.675781 17.648438 C 100.757812 17.382812 100.738281 17.28125 100.925781 17.054688 C 101.085938 16.851562 101.332031 16.644531 101.476562 16.460938 C 101.824219 15.949219 101.230469 15.601562 100.902344 15.539062 C 100.636719 15.5 100.371094 15.480469 100.125 15.621094 C 99.859375 15.785156 99.921875 15.929688 99.859375 16.15625 C 99.796875 16.441406 99.589844 16.769531 99.488281 17.035156 C 99.328125 17.464844 99.183594 17.894531 99.039062 18.328125 C 98.875 18.757812 98.710938 19.164062 98.589844 19.59375 C 98.484375 19.945312 98.507812 20.273438 98.464844 20.597656 C 98.425781 20.96875 98.363281 21.214844 98.546875 21.542969 C 98.753906 21.890625 99.304688 22.421875 99.671875 21.972656 L 99.753906 22.136719 C 100.105469 21.378906 100.636719 20.703125 101.066406 19.964844 C 101.25 19.636719 101.578125 19.410156 101.847656 19.0625 C 102.214844 18.570312 102.542969 18.078125 102.953125 17.609375 C 102.890625 17.710938 102.625 18.183594 102.644531 18.203125 C 102.683594 18.183594 102.703125 18.140625 102.746094 18.101562 L 102.460938 18.675781 C 102.441406 18.652344 102.542969 18.511719 102.5 18.511719 C 102.359375 18.46875 101.929688 19.617188 101.886719 19.71875 C 101.742188 20.167969 101.722656 20.578125 101.679688 21.050781 C 101.660156 21.277344 101.621094 21.5 101.621094 21.726562 C 101.621094 21.953125 101.640625 22.175781 101.742188 22.402344 C 101.804688 22.523438 101.886719 22.6875 101.988281 22.792969 C 102.007812 22.792969 102.234375 22.996094 102.132812 22.832031 L 102.253906 22.957031 L 102.191406 22.914062 C 102.171875 23.015625 102.929688 23.425781 103.054688 23.46875 C 103.628906 23.652344 104.242188 22.996094 104.609375 22.605469 C 105.101562 22.074219 105.511719 21.460938 105.964844 20.886719 C 106.207031 20.558594 106.988281 19.863281 106.90625 19.371094 Z M 106.90625 19.371094 " fill-opacity="1" fill-rule="nonzero"/><path fill="#ffffff" d="M 124.191406 24.941406 C 123.886719 25.332031 123.269531 25.78125 122.738281 25.84375 C 122.535156 25.863281 122.328125 25.804688 122.125 25.742188 C 122.042969 25.699219 121.285156 25.351562 121.285156 25.394531 L 121.386719 25.515625 C 121.015625 25.269531 120.585938 24.800781 120.238281 24.449219 C 119.726562 23.9375 119.195312 23.46875 118.660156 22.976562 C 118.496094 22.773438 117.023438 21.007812 116.367188 20.148438 C 116.570312 20.496094 116.902344 20.949219 117.0625 21.195312 C 116.511719 20.519531 116.058594 19.800781 115.609375 19.0625 C 116.695312 18.53125 117.761719 17.792969 118.640625 16.996094 C 118.949219 16.707031 119.175781 16.378906 119.5 16.113281 C 119.972656 15.703125 120.402344 15.234375 120.875 14.824219 C 121.097656 14.617188 121.386719 14.394531 121.570312 14.148438 C 121.753906 13.902344 121.835938 13.675781 122.0625 13.449219 C 122.511719 12.980469 122.882812 12.507812 123.292969 12.035156 C 123.867188 11.363281 124.316406 10.707031 124.171875 9.824219 L 124.171875 9.785156 C 124.089844 9.394531 123.742188 8.574219 123.3125 8.472656 C 123.003906 8.410156 123.066406 8.660156 123.003906 8.863281 C 122.65625 10.070312 121.632812 11.21875 120.855469 12.203125 C 120.015625 13.226562 119.050781 14.042969 118.171875 15.007812 C 117.289062 15.910156 116.367188 16.6875 115.363281 17.464844 C 115.527344 16.832031 115.898438 16.238281 116.019531 15.601562 C 116.058594 15.253906 116.121094 14.964844 116.265625 14.640625 L 116.632812 13.71875 C 116.839844 13.125 117.042969 12.550781 117.269531 11.976562 C 117.414062 11.566406 117.636719 11.136719 117.761719 10.707031 C 117.824219 10.460938 117.78125 10.316406 117.863281 10.113281 C 118.109375 9.539062 118.722656 9.085938 118.007812 8.597656 C 117.65625 8.332031 116.878906 8.105469 116.613281 8.574219 C 116.613281 8.597656 116.632812 8.636719 116.65625 8.660156 L 116.511719 9.003906 C 116.367188 9.292969 116.246094 9.578125 116.164062 9.847656 C 115.589844 11.21875 115.136719 12.609375 114.667969 13.984375 C 114.175781 15.539062 113.601562 17.074219 113.152344 18.632812 C 113.007812 19.25 112.925781 19.84375 112.703125 20.4375 C 112.433594 21.195312 112.210938 21.953125 112.023438 22.730469 C 111.800781 23.609375 111.410156 24.574219 112.023438 25.394531 C 112.230469 25.699219 112.886719 26.480469 113.171875 25.945312 C 113.316406 25.699219 113.296875 25.269531 113.355469 25.003906 L 113.601562 23.9375 C 113.808594 23.078125 114.011719 22.21875 114.277344 21.339844 C 114.484375 20.742188 114.503906 20.148438 114.6875 19.554688 L 115.054688 20.273438 C 115.136719 20.3125 115.199219 20.375 115.222656 20.457031 C 115.160156 20.476562 115.136719 20.539062 115.160156 20.597656 C 115.261719 20.988281 115.546875 21.359375 115.753906 21.683594 C 115.875 21.871094 117.085938 23.796875 117.125 23.734375 L 117.125 23.691406 L 117.390625 24.019531 C 117.351562 24.0625 117.289062 23.9375 117.269531 23.960938 C 117.125 24.101562 118.085938 25.230469 118.191406 25.3125 C 118.4375 25.535156 118.660156 25.761719 118.886719 26.027344 C 118.988281 26.171875 119.113281 26.316406 119.277344 26.4375 C 119.316406 26.457031 119.582031 26.621094 119.523438 26.558594 C 119.542969 26.558594 119.582031 26.582031 119.625 26.621094 C 119.582031 26.601562 119.5625 26.601562 119.542969 26.601562 C 119.542969 26.683594 120.628906 27.484375 120.710938 27.542969 C 121.078125 27.75 121.488281 27.851562 121.941406 27.769531 C 123.085938 27.5625 123.90625 26.480469 124.480469 25.578125 C 124.601562 25.375 124.664062 25.207031 124.644531 24.964844 C 124.5625 24.410156 124.378906 24.71875 124.191406 24.941406 Z M 113.910156 18.183594 C 113.890625 18.203125 113.890625 18.222656 113.890625 18.246094 C 113.683594 19.082031 113.519531 19.945312 113.277344 20.804688 C 113.070312 21.460938 112.804688 22.09375 112.617188 22.730469 C 113.007812 21.070312 113.539062 19.390625 114.011719 17.734375 Z M 117.742188 22.011719 L 118.085938 22.445312 C 117.925781 22.257812 117.742188 22.074219 117.597656 21.871094 Z M 116.140625 19.882812 L 116.039062 19.699219 C 116.039062 19.71875 116.082031 19.78125 116.140625 19.882812 Z M 116.246094 20.027344 L 116.164062 19.925781 Z M 116.246094 20.027344 " fill-opacity="1" fill-rule="nonzero"/><path fill="#ffffff" d="M 133.042969 19.207031 C 132.941406 19.207031 132.796875 19.410156 132.734375 19.472656 C 132.449219 19.761719 132.199219 20.085938 131.957031 20.394531 C 131.28125 21.171875 130.605469 21.972656 129.867188 22.6875 C 129.679688 22.855469 129.210938 23.40625 128.945312 23.222656 C 128.78125 23.117188 128.925781 22.464844 128.945312 22.320312 C 128.984375 22.136719 129.355469 21.171875 129.230469 21.050781 C 129.167969 21.007812 129.066406 21.316406 129.046875 21.339844 C 129.375 20.191406 130.03125 18.878906 130.5625 17.753906 C 130.871094 17.136719 131.257812 16.378906 130.746094 15.746094 C 129.847656 14.640625 128.71875 16.050781 128.105469 16.707031 C 127.839844 16.996094 125.257812 20.148438 125.300781 20.167969 C 125.300781 20.167969 125.484375 19.945312 125.75 19.636719 C 125.359375 20.148438 124.992188 20.660156 124.640625 21.195312 C 124.867188 20.355469 125.113281 19.535156 125.382812 18.714844 C 125.523438 18.304688 125.644531 17.875 125.789062 17.445312 C 125.953125 16.996094 126.078125 16.8125 126.425781 16.480469 C 127.019531 15.949219 127.59375 15.375 128.125 14.761719 C 128.332031 14.515625 128.472656 14.230469 128.679688 14.003906 C 128.863281 13.820312 129.128906 13.65625 129.335938 13.429688 C 130.378906 12.203125 131.21875 10.664062 131.914062 9.230469 C 132.222656 8.554688 132.507812 7.859375 132.714844 7.140625 C 132.753906 6.976562 133.203125 5.09375 133.101562 5.09375 C 133.082031 5.09375 133.082031 5.113281 133.0625 5.15625 C 133.082031 4.828125 133.0625 4.457031 132.941406 4.132812 C 132.960938 4.132812 133.0625 4.4375 133.0625 4.4375 C 133.183594 4.355469 132.816406 3.722656 132.734375 3.640625 C 132.550781 3.453125 132.285156 3.351562 132.015625 3.351562 C 131.484375 3.3125 130.992188 3.597656 130.582031 3.90625 C 129.804688 4.5 129.25 5.378906 128.679688 6.179688 C 128.351562 6.628906 128.042969 7.082031 127.757812 7.550781 C 127.550781 7.859375 127.101562 8.410156 127.101562 8.78125 C 127.121094 8.800781 127.140625 8.800781 127.140625 8.800781 L 126.898438 9.273438 C 126.898438 9.273438 127.019531 8.902344 127.039062 8.882812 C 126.9375 8.945312 126.835938 9.375 126.835938 9.394531 C 126.035156 10.953125 125.195312 12.445312 124.640625 14.105469 C 124.007812 15.96875 123.535156 17.894531 123.1875 19.820312 C 123.023438 20.703125 122.820312 21.664062 122.902344 22.566406 C 122.902344 22.8125 122.921875 23.097656 123.105469 23.304688 C 123.332031 23.589844 123.804688 23.691406 124.070312 23.40625 C 124.152344 23.304688 124.152344 23.242188 124.191406 23.140625 L 124.5625 22.484375 C 125.050781 21.726562 125.644531 21.03125 126.117188 20.253906 C 126.179688 20.128906 126.242188 19.984375 126.324219 19.882812 C 126.425781 19.761719 126.464844 19.820312 126.589844 19.71875 C 126.9375 19.433594 127.203125 19 127.492188 18.652344 C 128.085938 17.917969 128.679688 17.074219 129.4375 16.460938 L 128.84375 17.894531 L 128.90625 17.835938 L 128.597656 18.53125 C 128.574219 18.511719 128.65625 18.328125 128.65625 18.304688 C 128.574219 18.304688 128.1875 19.105469 128.144531 19.1875 C 127.902344 19.679688 127.632812 20.167969 127.492188 20.683594 C 127.367188 21.171875 127.222656 21.664062 127.082031 22.15625 C 127.019531 22.464844 126.957031 22.773438 126.976562 23.078125 C 126.976562 23.160156 127.140625 23.898438 127.203125 23.835938 L 127.203125 23.753906 C 127.246094 23.878906 127.285156 23.980469 127.347656 24.082031 L 127.222656 23.898438 C 127.160156 24.039062 127.714844 24.511719 127.777344 24.574219 C 128.085938 24.882812 128.390625 25.085938 128.863281 25.105469 C 129.25 25.125 129.457031 24.984375 129.742188 24.71875 C 130.523438 23.960938 131.074219 22.914062 131.667969 22.011719 C 131.996094 21.542969 132.324219 21.050781 132.632812 20.558594 C 132.714844 20.457031 133.265625 19.308594 133.183594 19.332031 C 133.308594 19.308594 133.082031 19.207031 133.042969 19.207031 Z M 131.257812 5.421875 L 131.257812 5.402344 C 131.257812 5.402344 131.28125 5.402344 131.28125 5.378906 L 131.28125 5.402344 C 131.300781 5.359375 131.320312 5.320312 131.300781 5.339844 C 131.464844 5.09375 131.875 4.355469 132.160156 4.601562 C 132.449219 4.847656 132.179688 5.707031 132.097656 6.015625 C 131.9375 6.652344 131.6875 7.265625 131.445312 7.859375 C 130.953125 9.003906 130.339844 10.089844 129.660156 11.15625 C 129.335938 11.667969 128.984375 12.179688 128.636719 12.671875 C 128.453125 12.917969 128.269531 13.164062 128.0625 13.410156 L 127.902344 13.59375 L 128.269531 13.226562 L 129.085938 12.078125 C 129.539062 11.464844 129.96875 10.789062 130.378906 10.113281 C 129.335938 11.957031 128.0625 13.695312 126.589844 15.253906 L 127.203125 13.636719 C 127.265625 13.511719 127.695312 12.304688 127.695312 12.304688 C 127.652344 12.324219 127.59375 12.425781 127.53125 12.527344 C 128.023438 11.402344 128.65625 10.234375 129.230469 9.109375 C 129.867188 7.878906 130.5 6.609375 131.238281 5.441406 C 131.238281 5.441406 131.257812 5.441406 131.257812 5.421875 Z M 126.117188 15.457031 C 126.304688 14.351562 126.816406 13.308594 127.183594 12.242188 C 127.511719 11.339844 128.042969 10.519531 128.453125 9.660156 C 128.636719 9.253906 130.605469 5.503906 130.644531 5.523438 C 130.808594 5.625 128.289062 10.441406 128.023438 11.011719 C 127.796875 11.441406 127.59375 11.851562 127.429688 12.324219 C 127.285156 12.777344 127.039062 13.144531 126.875 13.574219 C 126.792969 13.78125 125.976562 15.929688 126.035156 15.949219 C 125.996094 15.949219 126.078125 15.621094 126.097656 15.519531 Z M 127.53125 14.023438 C 127.570312 13.984375 127.613281 13.902344 127.675781 13.839844 C 127.613281 13.902344 127.570312 13.960938 127.53125 14.023438 Z M 131.257812 5.421875 L 131.257812 5.402344 L 131.28125 5.402344 Z M 126.117188 15.480469 C 126.117188 15.5 126.097656 15.519531 126.097656 15.519531 C 126.097656 15.5 126.117188 15.5 126.117188 15.480469 Z M 126.117188 15.480469 " fill-opacity="1" fill-rule="nonzero"/><path fill="#ffffff" d="M 142.136719 19.308594 C 142.117188 18.859375 141.746094 19.25 141.625 19.410156 C 141.355469 19.800781 141.113281 20.210938 140.867188 20.597656 C 140.3125 21.441406 139.761719 22.28125 139.125 23.078125 C 137.015625 25.679688 138.488281 21.050781 138.324219 21.089844 C 138.246094 21.109375 138.183594 21.417969 138.164062 21.480469 C 138.324219 20.742188 138.632812 19.863281 139.023438 19.144531 C 139.246094 18.695312 139.511719 18.328125 139.105469 17.835938 C 138.347656 16.914062 137.464844 17.753906 136.972656 18.386719 C 136.769531 17.609375 136.359375 16.460938 135.355469 16.460938 C 134.90625 16.460938 134.640625 16.6875 134.332031 16.953125 C 134.148438 17.074219 134.003906 17.097656 133.839844 17.242188 C 133.574219 17.425781 133.386719 17.710938 133.207031 17.957031 C 132.507812 18.980469 132.015625 20.273438 131.792969 21.460938 C 131.6875 22.035156 131.648438 22.667969 131.8125 23.242188 C 131.914062 23.570312 132.28125 24.308594 132.753906 24.246094 C 132.773438 24.246094 132.734375 24.226562 132.671875 24.183594 C 132.957031 24.265625 133.285156 24.226562 133.53125 24.0625 C 133.554688 24.101562 133.308594 24.203125 133.308594 24.203125 C 133.53125 24.554688 135.210938 22.523438 135.335938 22.339844 C 135.601562 21.972656 135.785156 21.582031 136.03125 21.195312 C 136.214844 20.90625 136.503906 20.539062 136.707031 20.230469 C 136.6875 20.375 136.6875 20.558594 136.6875 20.558594 C 136.316406 21.726562 135.96875 22.996094 136.460938 24.203125 C 136.6875 24.820312 137.242188 25.394531 137.9375 25.269531 C 138.550781 25.167969 139.0625 24.574219 139.429688 24.101562 C 139.882812 23.570312 140.273438 22.976562 140.660156 22.363281 C 140.988281 21.808594 141.296875 21.253906 141.5625 20.640625 C 141.726562 20.253906 142.175781 19.78125 142.136719 19.308594 Z M 136.257812 19.453125 C 136.15625 19.59375 136.050781 19.738281 135.96875 19.882812 L 135.4375 20.640625 C 135.089844 21.152344 134.722656 21.644531 134.332031 22.113281 C 134.230469 22.257812 133.738281 22.894531 133.53125 22.832031 C 133.226562 22.730469 133.554688 21.664062 133.59375 21.5 C 133.65625 21.214844 134.742188 18.058594 135.027344 18 C 134.660156 17.976562 133.46875 21.683594 133.410156 21.992188 C 133.574219 20.988281 133.941406 20.003906 134.351562 19.082031 C 134.578125 18.613281 135.089844 17.363281 135.765625 17.363281 C 136.132812 17.363281 136.214844 18.121094 136.277344 18.367188 C 136.257812 18.328125 136.074219 17.734375 136.050781 17.753906 C 135.949219 17.835938 136.359375 18.960938 136.359375 19.125 C 136.359375 19.289062 136.359375 19.289062 136.257812 19.453125 Z M 136.726562 20.457031 C 136.726562 20.457031 136.789062 20.167969 136.808594 20.109375 L 136.910156 19.964844 Z M 136.421875 19.1875 L 136.421875 18.980469 C 136.480469 19.0625 136.480469 19.125 136.421875 19.1875 Z M 136.421875 19.1875 " fill-opacity="1" fill-rule="nonzero"/><g clip-path="url(#id1)"><path fill="#ffffff" d="M 149.121094 19.371094 C 149.019531 18.878906 148.730469 19.207031 148.609375 19.390625 C 148.324219 19.738281 147.871094 20.066406 147.523438 20.394531 C 147.050781 20.804688 146.578125 21.234375 146.089844 21.625 C 145.84375 21.828125 145.535156 22.113281 145.230469 22.21875 C 145.1875 22.238281 145.042969 22.257812 145.042969 22.28125 L 145.023438 22.257812 C 145.023438 22.257812 145.003906 21.929688 145.023438 21.910156 C 145.042969 21.644531 145.125 21.378906 145.207031 21.132812 C 145.230469 21.089844 145.453125 20.394531 145.414062 20.394531 L 145.3125 20.519531 C 145.433594 20.273438 145.597656 20.027344 145.742188 19.761719 C 145.414062 20.066406 145.1875 20.414062 145.023438 20.847656 C 144.941406 21.050781 144.71875 21.417969 144.675781 21.726562 C 144.71875 21.277344 145.023438 20.683594 145.167969 20.414062 C 145.371094 19.984375 145.597656 19.492188 145.863281 19.082031 C 146.355469 18.347656 147.421875 17.671875 147.09375 16.644531 C 146.804688 15.683594 146.046875 15.664062 145.453125 16.214844 C 145.167969 16.480469 142.730469 19.59375 142.792969 19.636719 C 142.792969 19.636719 142.996094 19.390625 143.261719 19.042969 L 142.054688 20.804688 C 142.03125 20.804688 142.257812 20.457031 142.238281 20.4375 C 142.21875 20.414062 142.074219 20.558594 142.054688 20.640625 C 142.09375 20.210938 142.238281 19.78125 142.28125 19.351562 C 142.300781 19.1875 142.28125 19.0625 142.320312 18.898438 C 142.402344 18.632812 142.484375 18.347656 142.605469 18.121094 C 142.6875 17.957031 142.851562 17.816406 142.894531 17.648438 C 142.976562 17.382812 142.953125 17.28125 143.140625 17.054688 C 143.304688 16.851562 143.546875 16.644531 143.691406 16.460938 C 144.039062 15.949219 143.445312 15.601562 143.117188 15.539062 C 142.851562 15.5 142.585938 15.480469 142.339844 15.621094 C 142.074219 15.785156 142.136719 15.929688 142.074219 16.15625 C 142.011719 16.441406 141.808594 16.769531 141.707031 17.035156 C 141.542969 17.464844 141.398438 17.894531 141.253906 18.328125 C 141.089844 18.757812 140.925781 19.164062 140.804688 19.59375 C 140.703125 19.945312 140.722656 20.273438 140.683594 20.597656 C 140.640625 20.96875 140.578125 21.214844 140.765625 21.542969 C 140.96875 21.890625 141.519531 22.421875 141.890625 21.972656 L 141.972656 22.136719 C 142.320312 21.378906 142.851562 20.703125 143.285156 19.964844 C 143.464844 19.636719 143.796875 19.410156 144.0625 19.0625 C 144.429688 18.570312 144.757812 18.078125 145.167969 17.609375 C 145.105469 17.710938 144.839844 18.183594 144.859375 18.203125 C 144.902344 18.183594 144.921875 18.140625 144.960938 18.101562 L 144.675781 18.675781 C 144.65625 18.652344 144.757812 18.511719 144.71875 18.511719 C 144.574219 18.46875 144.144531 19.617188 144.101562 19.71875 C 143.957031 20.167969 143.9375 20.578125 143.898438 21.050781 C 143.875 21.277344 143.835938 21.5 143.835938 21.726562 C 143.835938 21.953125 143.855469 22.175781 143.957031 22.402344 C 144.019531 22.523438 144.101562 22.6875 144.203125 22.792969 C 144.226562 22.792969 144.449219 22.996094 144.347656 22.832031 L 144.46875 22.957031 L 144.410156 22.914062 C 144.390625 23.015625 145.148438 23.425781 145.269531 23.46875 C 145.84375 23.652344 146.457031 22.996094 146.828125 22.605469 C 147.320312 22.074219 147.726562 21.460938 148.179688 20.886719 C 148.425781 20.558594 149.203125 19.863281 149.121094 19.371094 Z M 149.121094 19.371094 " fill-opacity="1" fill-rule="nonzero"/></g></svg>